<mxfile host="Electron" modified="2023-09-16T17:25:39.793Z" agent="Mozilla/5.0 (X11; Linux x86_64) AppleWebKit/537.36 (KHTML, like Gecko) draw.io/21.7.5 Chrome/114.0.5735.289 Electron/25.8.1 Safari/537.36" etag="UVQwYBJ69li9NJD6IZrG" version="21.7.5" type="device">
  <diagram name="Page-1" id="10a91c8b-09ff-31b1-d368-03940ed4cc9e">
    <mxGraphModel dx="6858" dy="1921" grid="1" gridSize="10" guides="1" tooltips="1" connect="1" arrows="1" fold="1" page="1" pageScale="1" pageWidth="1100" pageHeight="850" background="none" math="0" shadow="0">
      <root>
        <mxCell id="0" />
        <mxCell id="1" parent="0" />
        <mxCell id="62893188c0fa7362-1" value="What was your favorite subject in high school?&amp;nbsp;" style="whiteSpace=wrap;html=1;rounded=1;shadow=1;labelBackgroundColor=none;strokeWidth=1;fontFamily=Verdana;fontSize=12;align=center;" parent="1" vertex="1">
          <mxGeometry x="610" y="50" width="120" height="60" as="geometry" />
        </mxCell>
        <mxCell id="62893188c0fa7362-2" value="&lt;span&gt;How do you derive meaning in your life?&amp;nbsp;&lt;/span&gt;" style="whiteSpace=wrap;html=1;rounded=1;shadow=1;labelBackgroundColor=none;strokeWidth=1;fontFamily=Verdana;fontSize=12;align=center;" parent="1" vertex="1">
          <mxGeometry x="-750" y="335" width="120" height="60" as="geometry" />
        </mxCell>
        <mxCell id="62893188c0fa7362-5" value="Math&amp;nbsp;" style="rounded=0;html=1;labelBackgroundColor=none;startArrow=none;startFill=0;startSize=5;endArrow=none;endFill=0;endSize=5;jettySize=auto;orthogonalLoop=1;strokeWidth=1;fontFamily=Verdana;fontSize=12;exitX=0;exitY=0.5;exitDx=0;exitDy=0;" parent="1" source="62893188c0fa7362-1" target="62893188c0fa7362-2" edge="1">
          <mxGeometry x="-0.359" y="-11" relative="1" as="geometry">
            <mxPoint as="offset" />
            <mxPoint x="320" y="110" as="sourcePoint" />
          </mxGeometry>
        </mxCell>
        <mxCell id="62893188c0fa7362-8" value="&lt;span&gt;Do you prefer to work with people or by yourself?&lt;/span&gt;" style="whiteSpace=wrap;html=1;rounded=1;shadow=1;labelBackgroundColor=none;strokeWidth=1;fontFamily=Verdana;fontSize=12;align=center;" parent="1" vertex="1">
          <mxGeometry x="-860" y="445" width="120" height="60" as="geometry" />
        </mxCell>
        <mxCell id="62893188c0fa7362-9" value="Do you prefer to work with people or by yourself?" style="whiteSpace=wrap;html=1;rounded=1;shadow=1;labelBackgroundColor=none;strokeWidth=1;fontFamily=Verdana;fontSize=12;align=center;" parent="1" vertex="1">
          <mxGeometry x="-640" y="445" width="120" height="60" as="geometry" />
        </mxCell>
        <mxCell id="62893188c0fa7362-12" value="&lt;span&gt;Would you like to work in education?&amp;nbsp;&lt;/span&gt;" style="whiteSpace=wrap;html=1;rounded=1;shadow=1;labelBackgroundColor=none;strokeWidth=1;fontFamily=Verdana;fontSize=12;align=center;" parent="1" vertex="1">
          <mxGeometry x="-2300" y="850" width="120" height="60" as="geometry" />
        </mxCell>
        <mxCell id="62893188c0fa7362-13" value="&lt;span&gt;Would you rather be wealthy or respected by your peers?&amp;nbsp;&lt;/span&gt;" style="whiteSpace=wrap;html=1;rounded=1;shadow=1;labelBackgroundColor=none;strokeWidth=1;fontFamily=Verdana;fontSize=12;align=center;" parent="1" vertex="1">
          <mxGeometry x="-2080" y="1010" width="120" height="60" as="geometry" />
        </mxCell>
        <mxCell id="62893188c0fa7362-14" value="Through work" style="rounded=0;html=1;labelBackgroundColor=none;startArrow=none;startFill=0;startSize=5;endArrow=none;endFill=0;endSize=5;jettySize=auto;orthogonalLoop=1;strokeWidth=1;fontFamily=Verdana;fontSize=12" parent="1" source="62893188c0fa7362-2" target="62893188c0fa7362-8" edge="1">
          <mxGeometry x="0.1" y="-4" relative="1" as="geometry">
            <mxPoint as="offset" />
          </mxGeometry>
        </mxCell>
        <mxCell id="62893188c0fa7362-15" value="Family and friends" style="rounded=0;html=1;labelBackgroundColor=none;startArrow=none;startFill=0;startSize=5;endArrow=none;endFill=0;endSize=5;jettySize=auto;orthogonalLoop=1;strokeWidth=1;fontFamily=Verdana;fontSize=12" parent="1" source="62893188c0fa7362-2" target="62893188c0fa7362-9" edge="1">
          <mxGeometry x="0.1" y="4" relative="1" as="geometry">
            <mxPoint as="offset" />
          </mxGeometry>
        </mxCell>
        <mxCell id="62893188c0fa7362-18" value="With People" style="rounded=0;html=1;labelBackgroundColor=none;startArrow=none;startFill=0;startSize=5;endArrow=none;endFill=0;endSize=5;jettySize=auto;orthogonalLoop=1;strokeWidth=1;fontFamily=Verdana;fontSize=12;exitX=0;exitY=0.75;exitDx=0;exitDy=0;" parent="1" source="62893188c0fa7362-8" target="62893188c0fa7362-12" edge="1">
          <mxGeometry x="-0.031" y="-2" relative="1" as="geometry">
            <mxPoint as="offset" />
            <mxPoint x="-1750" y="1039.9999999999995" as="sourcePoint" />
          </mxGeometry>
        </mxCell>
        <mxCell id="62893188c0fa7362-19" value="Solo" style="rounded=0;html=1;labelBackgroundColor=none;startArrow=none;startFill=0;startSize=5;endArrow=none;endFill=0;endSize=5;jettySize=auto;orthogonalLoop=1;strokeWidth=1;fontFamily=Verdana;fontSize=12;exitX=0.25;exitY=1;exitDx=0;exitDy=0;" parent="1" source="62893188c0fa7362-8" target="62893188c0fa7362-13" edge="1">
          <mxGeometry x="-0.2842" y="12" relative="1" as="geometry">
            <mxPoint as="offset" />
            <mxPoint x="-1690" y="1039.9999999999995" as="sourcePoint" />
          </mxGeometry>
        </mxCell>
        <mxCell id="62893188c0fa7362-20" value="Which Age group?" style="whiteSpace=wrap;html=1;rounded=0;shadow=1;labelBackgroundColor=none;strokeWidth=2;fontFamily=Verdana;fontSize=12;align=center;" parent="1" vertex="1">
          <mxGeometry x="-2550" y="935" width="120" height="60" as="geometry" />
        </mxCell>
        <mxCell id="62893188c0fa7362-22" value="Do you like computers?" style="whiteSpace=wrap;html=1;rounded=0;shadow=1;labelBackgroundColor=none;strokeWidth=2;fontFamily=Verdana;fontSize=12;align=center;" parent="1" vertex="1">
          <mxGeometry x="-2400" y="1150" width="120" height="110" as="geometry" />
        </mxCell>
        <mxCell id="62893188c0fa7362-23" value="&lt;span&gt;Mathematics&lt;br&gt;Physics&lt;br&gt;Economics&lt;br&gt;Accounting&lt;br&gt;&lt;/span&gt;" style="whiteSpace=wrap;html=1;rounded=0;shadow=1;labelBackgroundColor=none;strokeWidth=2;fontFamily=Verdana;fontSize=12;align=center;fillColor=#d5e8d4;strokeColor=#82b366;" parent="1" vertex="1">
          <mxGeometry x="-2120" y="1230" width="120" height="100" as="geometry" />
        </mxCell>
        <mxCell id="62893188c0fa7362-24" value="Yes" style="rounded=0;html=1;labelBackgroundColor=none;startArrow=none;startFill=0;startSize=5;endArrow=none;endFill=0;endSize=5;jettySize=auto;orthogonalLoop=1;strokeWidth=1;fontFamily=Verdana;fontSize=12" parent="1" source="62893188c0fa7362-12" target="62893188c0fa7362-20" edge="1">
          <mxGeometry x="0.1373" y="-16" relative="1" as="geometry">
            <mxPoint as="offset" />
          </mxGeometry>
        </mxCell>
        <mxCell id="62893188c0fa7362-25" value="No" style="rounded=0;html=1;labelBackgroundColor=none;startArrow=none;startFill=0;startSize=5;endArrow=none;endFill=0;endSize=5;jettySize=auto;orthogonalLoop=1;strokeWidth=1;fontFamily=Verdana;fontSize=12;entryX=0.5;entryY=0;entryDx=0;entryDy=0;" parent="1" source="62893188c0fa7362-12" target="nb8dSJ33XXj_A_fWaeaZ-258" edge="1">
          <mxGeometry x="0.1373" y="16" relative="1" as="geometry">
            <mxPoint as="offset" />
            <mxPoint x="-3410" y="2470" as="targetPoint" />
          </mxGeometry>
        </mxCell>
        <mxCell id="62893188c0fa7362-26" value="Money" style="rounded=0;html=1;labelBackgroundColor=none;startArrow=none;startFill=0;startSize=5;endArrow=none;endFill=0;endSize=5;jettySize=auto;orthogonalLoop=1;strokeWidth=1;fontFamily=Verdana;fontSize=12" parent="1" source="62893188c0fa7362-13" target="62893188c0fa7362-22" edge="1">
          <mxGeometry x="0.0033" y="-12" relative="1" as="geometry">
            <mxPoint as="offset" />
          </mxGeometry>
        </mxCell>
        <mxCell id="62893188c0fa7362-27" value="Peers" style="rounded=0;html=1;labelBackgroundColor=none;startArrow=none;startFill=0;startSize=5;endArrow=none;endFill=0;endSize=5;jettySize=auto;orthogonalLoop=1;strokeWidth=1;fontFamily=Verdana;fontSize=12" parent="1" source="62893188c0fa7362-13" target="62893188c0fa7362-23" edge="1">
          <mxGeometry x="0.1373" y="16" relative="1" as="geometry">
            <mxPoint as="offset" />
          </mxGeometry>
        </mxCell>
        <mxCell id="nb8dSJ33XXj_A_fWaeaZ-1" value="How do you derive meaning in your life?&amp;nbsp;" style="whiteSpace=wrap;html=1;rounded=1;shadow=1;labelBackgroundColor=none;strokeWidth=1;fontFamily=Verdana;fontSize=12;align=center;" parent="1" vertex="1">
          <mxGeometry x="-100" y="340" width="120" height="60" as="geometry" />
        </mxCell>
        <mxCell id="nb8dSJ33XXj_A_fWaeaZ-2" value="Science" style="rounded=0;html=1;labelBackgroundColor=none;startArrow=none;startFill=0;startSize=5;endArrow=none;endFill=0;endSize=5;jettySize=auto;orthogonalLoop=1;strokeWidth=1;fontFamily=Verdana;fontSize=12;exitX=0;exitY=1;exitDx=0;exitDy=0;" parent="1" source="62893188c0fa7362-1" target="nb8dSJ33XXj_A_fWaeaZ-1" edge="1">
          <mxGeometry x="-0.3922" y="-2" relative="1" as="geometry">
            <mxPoint as="offset" />
            <mxPoint x="320" y="125" as="sourcePoint" />
          </mxGeometry>
        </mxCell>
        <mxCell id="nb8dSJ33XXj_A_fWaeaZ-3" value="Do you prefer to work with people or by yourself?" style="whiteSpace=wrap;html=1;rounded=1;shadow=1;labelBackgroundColor=none;strokeWidth=1;fontFamily=Verdana;fontSize=12;align=center;" parent="1" vertex="1">
          <mxGeometry x="-210" y="450" width="120" height="60" as="geometry" />
        </mxCell>
        <mxCell id="nb8dSJ33XXj_A_fWaeaZ-4" value="Do you prefer to work with people or by yourself?" style="whiteSpace=wrap;html=1;rounded=1;shadow=1;labelBackgroundColor=none;strokeWidth=1;fontFamily=Verdana;fontSize=12;align=center;" parent="1" vertex="1">
          <mxGeometry x="10" y="450" width="120" height="60" as="geometry" />
        </mxCell>
        <mxCell id="nb8dSJ33XXj_A_fWaeaZ-5" value="&lt;span&gt;Would you like to work in education?&lt;/span&gt;" style="whiteSpace=wrap;html=1;rounded=1;shadow=1;labelBackgroundColor=none;strokeWidth=1;fontFamily=Verdana;fontSize=12;align=center;" parent="1" vertex="1">
          <mxGeometry x="-820" y="1110" width="120" height="60" as="geometry" />
        </mxCell>
        <mxCell id="nb8dSJ33XXj_A_fWaeaZ-6" value="&lt;span&gt;Would you rather be wealthy or respected by your peers?&amp;nbsp;&lt;/span&gt;" style="whiteSpace=wrap;html=1;rounded=1;shadow=1;labelBackgroundColor=none;strokeWidth=1;fontFamily=Verdana;fontSize=12;align=center;" parent="1" vertex="1">
          <mxGeometry x="-850" y="1400" width="120" height="60" as="geometry" />
        </mxCell>
        <mxCell id="nb8dSJ33XXj_A_fWaeaZ-7" value="Through Work&amp;nbsp;" style="rounded=0;html=1;labelBackgroundColor=none;startArrow=none;startFill=0;startSize=5;endArrow=none;endFill=0;endSize=5;jettySize=auto;orthogonalLoop=1;strokeWidth=1;fontFamily=Verdana;fontSize=12" parent="1" source="nb8dSJ33XXj_A_fWaeaZ-1" target="nb8dSJ33XXj_A_fWaeaZ-3" edge="1">
          <mxGeometry y="-7" relative="1" as="geometry">
            <mxPoint as="offset" />
          </mxGeometry>
        </mxCell>
        <mxCell id="nb8dSJ33XXj_A_fWaeaZ-8" value="" style="rounded=0;html=1;labelBackgroundColor=none;startArrow=none;startFill=0;startSize=5;endArrow=none;endFill=0;endSize=5;jettySize=auto;orthogonalLoop=1;strokeWidth=1;fontFamily=Verdana;fontSize=12" parent="1" source="nb8dSJ33XXj_A_fWaeaZ-1" target="nb8dSJ33XXj_A_fWaeaZ-4" edge="1">
          <mxGeometry x="-0.2" y="14" relative="1" as="geometry">
            <mxPoint as="offset" />
          </mxGeometry>
        </mxCell>
        <mxCell id="nb8dSJ33XXj_A_fWaeaZ-9" value="With people&amp;nbsp;" style="rounded=0;html=1;labelBackgroundColor=none;startArrow=none;startFill=0;startSize=5;endArrow=none;endFill=0;endSize=5;jettySize=auto;orthogonalLoop=1;strokeWidth=1;fontFamily=Verdana;fontSize=12;exitX=0.25;exitY=1;exitDx=0;exitDy=0;" parent="1" source="nb8dSJ33XXj_A_fWaeaZ-3" target="nb8dSJ33XXj_A_fWaeaZ-5" edge="1">
          <mxGeometry x="-0.2168" y="-14" relative="1" as="geometry">
            <mxPoint as="offset" />
            <mxPoint x="-510" y="1129.9999999999995" as="sourcePoint" />
          </mxGeometry>
        </mxCell>
        <mxCell id="nb8dSJ33XXj_A_fWaeaZ-10" value="Solo" style="rounded=0;html=1;labelBackgroundColor=none;startArrow=none;startFill=0;startSize=5;endArrow=none;endFill=0;endSize=5;jettySize=auto;orthogonalLoop=1;strokeWidth=1;fontFamily=Verdana;fontSize=12;" parent="1" source="nb8dSJ33XXj_A_fWaeaZ-3" target="nb8dSJ33XXj_A_fWaeaZ-6" edge="1">
          <mxGeometry x="-0.2842" y="12" relative="1" as="geometry">
            <mxPoint as="offset" />
            <mxPoint x="-466.2000000000007" y="1130.1199999999994" as="sourcePoint" />
          </mxGeometry>
        </mxCell>
        <mxCell id="nb8dSJ33XXj_A_fWaeaZ-11" value="Which age group?&amp;nbsp;" style="whiteSpace=wrap;html=1;rounded=0;shadow=1;labelBackgroundColor=none;strokeWidth=2;fontFamily=Verdana;fontSize=12;align=center;" parent="1" vertex="1">
          <mxGeometry x="-1200" y="1350" width="120" height="60" as="geometry" />
        </mxCell>
        <mxCell id="nb8dSJ33XXj_A_fWaeaZ-12" value="Integrated Health Sciences&lt;br&gt;Biology&lt;br&gt;Nursing&lt;br&gt;" style="whiteSpace=wrap;html=1;rounded=0;shadow=1;labelBackgroundColor=none;strokeWidth=2;fontFamily=Verdana;fontSize=12;align=center;fillColor=#d5e8d4;strokeColor=#82b366;" parent="1" vertex="1">
          <mxGeometry x="-1100" y="1455" width="120" height="85" as="geometry" />
        </mxCell>
        <mxCell id="nb8dSJ33XXj_A_fWaeaZ-13" value="&lt;span&gt;Physics&lt;/span&gt;" style="whiteSpace=wrap;html=1;rounded=0;shadow=1;labelBackgroundColor=none;strokeWidth=2;fontFamily=Verdana;fontSize=12;align=center;fillColor=#d5e8d4;strokeColor=#82b366;" parent="1" vertex="1">
          <mxGeometry x="-930" y="1505" width="120" height="60" as="geometry" />
        </mxCell>
        <mxCell id="nb8dSJ33XXj_A_fWaeaZ-14" value="&lt;span&gt;Biochemistry&lt;br&gt;Chemistry&lt;br&gt;Biology&lt;br&gt;Physics&lt;br&gt;&lt;/span&gt;" style="whiteSpace=wrap;html=1;rounded=0;shadow=1;labelBackgroundColor=none;strokeWidth=2;fontFamily=Verdana;fontSize=12;align=center;fillColor=#d5e8d4;strokeColor=#82b366;" parent="1" vertex="1">
          <mxGeometry x="-760" y="1505" width="120" height="60" as="geometry" />
        </mxCell>
        <mxCell id="nb8dSJ33XXj_A_fWaeaZ-15" value="Yes" style="rounded=0;html=1;labelBackgroundColor=none;startArrow=none;startFill=0;startSize=5;endArrow=none;endFill=0;endSize=5;jettySize=auto;orthogonalLoop=1;strokeWidth=1;fontFamily=Verdana;fontSize=12" parent="1" source="nb8dSJ33XXj_A_fWaeaZ-5" target="nb8dSJ33XXj_A_fWaeaZ-11" edge="1">
          <mxGeometry x="0.1373" y="-16" relative="1" as="geometry">
            <mxPoint as="offset" />
          </mxGeometry>
        </mxCell>
        <mxCell id="nb8dSJ33XXj_A_fWaeaZ-16" value="No" style="rounded=0;html=1;labelBackgroundColor=none;startArrow=none;startFill=0;startSize=5;endArrow=none;endFill=0;endSize=5;jettySize=auto;orthogonalLoop=1;strokeWidth=1;fontFamily=Verdana;fontSize=12" parent="1" source="nb8dSJ33XXj_A_fWaeaZ-5" target="nb8dSJ33XXj_A_fWaeaZ-12" edge="1">
          <mxGeometry x="0.1373" y="16" relative="1" as="geometry">
            <mxPoint as="offset" />
          </mxGeometry>
        </mxCell>
        <mxCell id="nb8dSJ33XXj_A_fWaeaZ-17" value="Money" style="rounded=0;html=1;labelBackgroundColor=none;startArrow=none;startFill=0;startSize=5;endArrow=none;endFill=0;endSize=5;jettySize=auto;orthogonalLoop=1;strokeWidth=1;fontFamily=Verdana;fontSize=12" parent="1" source="nb8dSJ33XXj_A_fWaeaZ-6" target="nb8dSJ33XXj_A_fWaeaZ-13" edge="1">
          <mxGeometry x="0.0033" y="-12" relative="1" as="geometry">
            <mxPoint as="offset" />
          </mxGeometry>
        </mxCell>
        <mxCell id="nb8dSJ33XXj_A_fWaeaZ-18" value="Peers" style="rounded=0;html=1;labelBackgroundColor=none;startArrow=none;startFill=0;startSize=5;endArrow=none;endFill=0;endSize=5;jettySize=auto;orthogonalLoop=1;strokeWidth=1;fontFamily=Verdana;fontSize=12" parent="1" source="nb8dSJ33XXj_A_fWaeaZ-6" target="nb8dSJ33XXj_A_fWaeaZ-14" edge="1">
          <mxGeometry x="0.1373" y="16" relative="1" as="geometry">
            <mxPoint as="offset" />
          </mxGeometry>
        </mxCell>
        <mxCell id="nb8dSJ33XXj_A_fWaeaZ-37" value="How do you derive meaning in your life?&amp;nbsp;" style="whiteSpace=wrap;html=1;rounded=1;shadow=1;labelBackgroundColor=none;strokeWidth=1;fontFamily=Verdana;fontSize=12;align=center;" parent="1" vertex="1">
          <mxGeometry x="1370" y="355" width="120" height="60" as="geometry" />
        </mxCell>
        <mxCell id="nb8dSJ33XXj_A_fWaeaZ-38" value="History" style="rounded=0;html=1;labelBackgroundColor=none;startArrow=none;startFill=0;startSize=5;endArrow=none;endFill=0;endSize=5;jettySize=auto;orthogonalLoop=1;strokeWidth=1;fontFamily=Verdana;fontSize=12;exitX=1;exitY=1;exitDx=0;exitDy=0;" parent="1" source="62893188c0fa7362-1" target="nb8dSJ33XXj_A_fWaeaZ-37" edge="1">
          <mxGeometry x="-0.2816" relative="1" as="geometry">
            <mxPoint as="offset" />
            <mxPoint x="950" y="90" as="sourcePoint" />
          </mxGeometry>
        </mxCell>
        <mxCell id="nb8dSJ33XXj_A_fWaeaZ-39" value="Do you prefer to work with people or by yourself?" style="whiteSpace=wrap;html=1;rounded=1;shadow=1;labelBackgroundColor=none;strokeWidth=1;fontFamily=Verdana;fontSize=12;align=center;" parent="1" vertex="1">
          <mxGeometry x="1260" y="465" width="120" height="60" as="geometry" />
        </mxCell>
        <mxCell id="nb8dSJ33XXj_A_fWaeaZ-40" value="Do you prefer to work with people or by yourself?" style="whiteSpace=wrap;html=1;rounded=1;shadow=1;labelBackgroundColor=none;strokeWidth=1;fontFamily=Verdana;fontSize=12;align=center;" parent="1" vertex="1">
          <mxGeometry x="1480" y="465" width="120" height="60" as="geometry" />
        </mxCell>
        <mxCell id="nb8dSJ33XXj_A_fWaeaZ-41" value="&lt;span&gt;Would you like to work in education?&amp;nbsp;&lt;/span&gt;" style="whiteSpace=wrap;html=1;rounded=1;shadow=1;labelBackgroundColor=none;strokeWidth=1;fontFamily=Verdana;fontSize=12;align=center;" parent="1" vertex="1">
          <mxGeometry x="1270" y="745" width="120" height="60" as="geometry" />
        </mxCell>
        <mxCell id="nb8dSJ33XXj_A_fWaeaZ-42" value="Would you rather be wealthy or respected by your peers?&amp;nbsp;" style="whiteSpace=wrap;html=1;rounded=1;shadow=1;labelBackgroundColor=none;strokeWidth=1;fontFamily=Verdana;fontSize=12;align=center;" parent="1" vertex="1">
          <mxGeometry x="1610" y="905" width="120" height="60" as="geometry" />
        </mxCell>
        <mxCell id="nb8dSJ33XXj_A_fWaeaZ-43" value="Through Work&amp;nbsp;" style="rounded=0;html=1;labelBackgroundColor=none;startArrow=none;startFill=0;startSize=5;endArrow=none;endFill=0;endSize=5;jettySize=auto;orthogonalLoop=1;strokeWidth=1;fontFamily=Verdana;fontSize=12" parent="1" source="nb8dSJ33XXj_A_fWaeaZ-37" target="nb8dSJ33XXj_A_fWaeaZ-39" edge="1">
          <mxGeometry x="0.1" y="-4" relative="1" as="geometry">
            <mxPoint as="offset" />
          </mxGeometry>
        </mxCell>
        <mxCell id="nb8dSJ33XXj_A_fWaeaZ-44" value="" style="rounded=0;html=1;labelBackgroundColor=none;startArrow=none;startFill=0;startSize=5;endArrow=none;endFill=0;endSize=5;jettySize=auto;orthogonalLoop=1;strokeWidth=1;fontFamily=Verdana;fontSize=12" parent="1" source="nb8dSJ33XXj_A_fWaeaZ-37" target="nb8dSJ33XXj_A_fWaeaZ-40" edge="1">
          <mxGeometry x="-0.2" y="14" relative="1" as="geometry">
            <mxPoint as="offset" />
          </mxGeometry>
        </mxCell>
        <mxCell id="nb8dSJ33XXj_A_fWaeaZ-45" value="With people" style="rounded=0;html=1;labelBackgroundColor=none;startArrow=none;startFill=0;startSize=5;endArrow=none;endFill=0;endSize=5;jettySize=auto;orthogonalLoop=1;strokeWidth=1;fontFamily=Verdana;fontSize=12;exitX=0.25;exitY=1;exitDx=0;exitDy=0;" parent="1" source="nb8dSJ33XXj_A_fWaeaZ-39" target="nb8dSJ33XXj_A_fWaeaZ-41" edge="1">
          <mxGeometry x="-0.2168" y="-14" relative="1" as="geometry">
            <mxPoint as="offset" />
            <mxPoint x="1718.260869565217" y="1714.9999999999995" as="sourcePoint" />
          </mxGeometry>
        </mxCell>
        <mxCell id="nb8dSJ33XXj_A_fWaeaZ-46" value="Solo" style="rounded=0;html=1;labelBackgroundColor=none;startArrow=none;startFill=0;startSize=5;endArrow=none;endFill=0;endSize=5;jettySize=auto;orthogonalLoop=1;strokeWidth=1;fontFamily=Verdana;fontSize=12;exitX=0.5;exitY=1;exitDx=0;exitDy=0;" parent="1" source="nb8dSJ33XXj_A_fWaeaZ-39" target="nb8dSJ33XXj_A_fWaeaZ-42" edge="1">
          <mxGeometry x="-0.2842" y="12" relative="1" as="geometry">
            <mxPoint as="offset" />
            <mxPoint x="1804.347826086956" y="1714.9999999999995" as="sourcePoint" />
          </mxGeometry>
        </mxCell>
        <mxCell id="nb8dSJ33XXj_A_fWaeaZ-47" value="Which age group?&amp;nbsp;" style="whiteSpace=wrap;html=1;rounded=0;shadow=1;labelBackgroundColor=none;strokeWidth=2;fontFamily=Verdana;fontSize=12;align=center;" parent="1" vertex="1">
          <mxGeometry x="1180" y="850" width="120" height="60" as="geometry" />
        </mxCell>
        <mxCell id="nb8dSJ33XXj_A_fWaeaZ-48" value="International Affairs&lt;br&gt;Political Science&lt;br&gt;Media and Entertainment&lt;span&gt;&lt;br&gt;&lt;/span&gt;" style="whiteSpace=wrap;html=1;rounded=0;shadow=1;labelBackgroundColor=none;strokeWidth=2;fontFamily=Verdana;fontSize=12;align=center;fillColor=#d5e8d4;strokeColor=#82b366;" parent="1" vertex="1">
          <mxGeometry x="1340" y="850" width="140" height="60" as="geometry" />
        </mxCell>
        <mxCell id="nb8dSJ33XXj_A_fWaeaZ-49" value="&lt;span&gt;Management&lt;br&gt;Construction Management&lt;br&gt;Entrepreneurship&lt;br&gt;&lt;/span&gt;" style="whiteSpace=wrap;html=1;rounded=0;shadow=1;labelBackgroundColor=none;strokeWidth=2;fontFamily=Verdana;fontSize=12;align=center;fillColor=#d5e8d4;strokeColor=#82b366;" parent="1" vertex="1">
          <mxGeometry x="1530" y="1010" width="140" height="60" as="geometry" />
        </mxCell>
        <mxCell id="nb8dSJ33XXj_A_fWaeaZ-50" value="&lt;span&gt;Anthropology&lt;/span&gt;" style="whiteSpace=wrap;html=1;rounded=0;shadow=1;labelBackgroundColor=none;strokeWidth=2;fontFamily=Verdana;fontSize=12;align=center;fillColor=#d5e8d4;strokeColor=#82b366;" parent="1" vertex="1">
          <mxGeometry x="1700" y="1010" width="120" height="60" as="geometry" />
        </mxCell>
        <mxCell id="nb8dSJ33XXj_A_fWaeaZ-51" value="Yes" style="rounded=0;html=1;labelBackgroundColor=none;startArrow=none;startFill=0;startSize=5;endArrow=none;endFill=0;endSize=5;jettySize=auto;orthogonalLoop=1;strokeWidth=1;fontFamily=Verdana;fontSize=12" parent="1" source="nb8dSJ33XXj_A_fWaeaZ-41" target="nb8dSJ33XXj_A_fWaeaZ-47" edge="1">
          <mxGeometry x="0.1373" y="-16" relative="1" as="geometry">
            <mxPoint as="offset" />
          </mxGeometry>
        </mxCell>
        <mxCell id="nb8dSJ33XXj_A_fWaeaZ-52" value="No" style="rounded=0;html=1;labelBackgroundColor=none;startArrow=none;startFill=0;startSize=5;endArrow=none;endFill=0;endSize=5;jettySize=auto;orthogonalLoop=1;strokeWidth=1;fontFamily=Verdana;fontSize=12" parent="1" source="nb8dSJ33XXj_A_fWaeaZ-41" target="nb8dSJ33XXj_A_fWaeaZ-48" edge="1">
          <mxGeometry x="0.1373" y="16" relative="1" as="geometry">
            <mxPoint as="offset" />
          </mxGeometry>
        </mxCell>
        <mxCell id="nb8dSJ33XXj_A_fWaeaZ-53" value="Money" style="rounded=0;html=1;labelBackgroundColor=none;startArrow=none;startFill=0;startSize=5;endArrow=none;endFill=0;endSize=5;jettySize=auto;orthogonalLoop=1;strokeWidth=1;fontFamily=Verdana;fontSize=12" parent="1" source="nb8dSJ33XXj_A_fWaeaZ-42" target="nb8dSJ33XXj_A_fWaeaZ-49" edge="1">
          <mxGeometry x="0.0033" y="-12" relative="1" as="geometry">
            <mxPoint as="offset" />
          </mxGeometry>
        </mxCell>
        <mxCell id="nb8dSJ33XXj_A_fWaeaZ-54" value="Peers" style="rounded=0;html=1;labelBackgroundColor=none;startArrow=none;startFill=0;startSize=5;endArrow=none;endFill=0;endSize=5;jettySize=auto;orthogonalLoop=1;strokeWidth=1;fontFamily=Verdana;fontSize=12" parent="1" source="nb8dSJ33XXj_A_fWaeaZ-42" target="nb8dSJ33XXj_A_fWaeaZ-50" edge="1">
          <mxGeometry x="0.1373" y="16" relative="1" as="geometry">
            <mxPoint as="offset" />
          </mxGeometry>
        </mxCell>
        <mxCell id="nb8dSJ33XXj_A_fWaeaZ-55" value="How do you derive meaning in your life?&amp;nbsp;" style="whiteSpace=wrap;html=1;rounded=1;shadow=1;labelBackgroundColor=none;strokeWidth=1;fontFamily=Verdana;fontSize=12;align=center;" parent="1" vertex="1">
          <mxGeometry x="2020" y="350" width="120" height="60" as="geometry" />
        </mxCell>
        <mxCell id="nb8dSJ33XXj_A_fWaeaZ-56" value="Art" style="rounded=0;html=1;labelBackgroundColor=none;startArrow=none;startFill=0;startSize=5;endArrow=none;endFill=0;endSize=5;jettySize=auto;orthogonalLoop=1;strokeWidth=1;fontFamily=Verdana;fontSize=12;exitX=1;exitY=0.5;exitDx=0;exitDy=0;" parent="1" source="62893188c0fa7362-1" target="nb8dSJ33XXj_A_fWaeaZ-55" edge="1">
          <mxGeometry x="-0.3499" y="3" relative="1" as="geometry">
            <mxPoint as="offset" />
            <mxPoint x="950" y="60" as="sourcePoint" />
          </mxGeometry>
        </mxCell>
        <mxCell id="nb8dSJ33XXj_A_fWaeaZ-57" value="Do you prefer to work with people or by yourself?" style="whiteSpace=wrap;html=1;rounded=1;shadow=1;labelBackgroundColor=none;strokeWidth=1;fontFamily=Verdana;fontSize=12;align=center;" parent="1" vertex="1">
          <mxGeometry x="1910" y="460" width="120" height="60" as="geometry" />
        </mxCell>
        <mxCell id="nb8dSJ33XXj_A_fWaeaZ-58" value="Do you prefer to work with people or by yourself?" style="whiteSpace=wrap;html=1;rounded=1;shadow=1;labelBackgroundColor=none;strokeWidth=1;fontFamily=Verdana;fontSize=12;align=center;" parent="1" vertex="1">
          <mxGeometry x="2130" y="460" width="120" height="60" as="geometry" />
        </mxCell>
        <mxCell id="nb8dSJ33XXj_A_fWaeaZ-61" value="Through Work&amp;nbsp;" style="rounded=0;html=1;labelBackgroundColor=none;startArrow=none;startFill=0;startSize=5;endArrow=none;endFill=0;endSize=5;jettySize=auto;orthogonalLoop=1;strokeWidth=1;fontFamily=Verdana;fontSize=12" parent="1" source="nb8dSJ33XXj_A_fWaeaZ-55" target="nb8dSJ33XXj_A_fWaeaZ-57" edge="1">
          <mxGeometry x="-0.2" y="-14" relative="1" as="geometry">
            <mxPoint as="offset" />
          </mxGeometry>
        </mxCell>
        <mxCell id="nb8dSJ33XXj_A_fWaeaZ-62" value="Family and friends" style="rounded=0;html=1;labelBackgroundColor=none;startArrow=none;startFill=0;startSize=5;endArrow=none;endFill=0;endSize=5;jettySize=auto;orthogonalLoop=1;strokeWidth=1;fontFamily=Verdana;fontSize=12" parent="1" source="nb8dSJ33XXj_A_fWaeaZ-55" target="nb8dSJ33XXj_A_fWaeaZ-58" edge="1">
          <mxGeometry x="0.2" y="14" relative="1" as="geometry">
            <mxPoint as="offset" />
          </mxGeometry>
        </mxCell>
        <mxCell id="nb8dSJ33XXj_A_fWaeaZ-73" value="How do you derive meaning in your life?&amp;nbsp;" style="whiteSpace=wrap;html=1;rounded=1;shadow=1;labelBackgroundColor=none;strokeWidth=1;fontFamily=Verdana;fontSize=12;align=center;" parent="1" vertex="1">
          <mxGeometry x="620" y="350" width="120" height="60" as="geometry" />
        </mxCell>
        <mxCell id="nb8dSJ33XXj_A_fWaeaZ-74" value="Do you prefer to work with people or by yourself?" style="whiteSpace=wrap;html=1;rounded=1;shadow=1;labelBackgroundColor=none;strokeWidth=1;fontFamily=Verdana;fontSize=12;align=center;" parent="1" vertex="1">
          <mxGeometry x="510" y="460" width="120" height="60" as="geometry" />
        </mxCell>
        <mxCell id="nb8dSJ33XXj_A_fWaeaZ-75" value="Do you prefer to work with people or by yourself?" style="whiteSpace=wrap;html=1;rounded=1;shadow=1;labelBackgroundColor=none;strokeWidth=1;fontFamily=Verdana;fontSize=12;align=center;" parent="1" vertex="1">
          <mxGeometry x="730" y="460" width="120" height="60" as="geometry" />
        </mxCell>
        <mxCell id="nb8dSJ33XXj_A_fWaeaZ-76" value="&lt;span&gt;Would you like to work in education?&lt;/span&gt;" style="whiteSpace=wrap;html=1;rounded=1;shadow=1;labelBackgroundColor=none;strokeWidth=1;fontFamily=Verdana;fontSize=12;align=center;" parent="1" vertex="1">
          <mxGeometry x="155" y="1400" width="120" height="60" as="geometry" />
        </mxCell>
        <mxCell id="nb8dSJ33XXj_A_fWaeaZ-77" value="Would you rather be wealthy or respected by your peers?&amp;nbsp;" style="whiteSpace=wrap;html=1;rounded=1;shadow=1;labelBackgroundColor=none;strokeWidth=1;fontFamily=Verdana;fontSize=12;align=center;" parent="1" vertex="1">
          <mxGeometry x="480" y="850" width="120" height="60" as="geometry" />
        </mxCell>
        <mxCell id="nb8dSJ33XXj_A_fWaeaZ-78" value="Through Work&amp;nbsp;" style="rounded=0;html=1;labelBackgroundColor=none;startArrow=none;startFill=0;startSize=5;endArrow=none;endFill=0;endSize=5;jettySize=auto;orthogonalLoop=1;strokeWidth=1;fontFamily=Verdana;fontSize=12" parent="1" source="nb8dSJ33XXj_A_fWaeaZ-73" target="nb8dSJ33XXj_A_fWaeaZ-74" edge="1">
          <mxGeometry x="-0.2" y="-14" relative="1" as="geometry">
            <mxPoint as="offset" />
          </mxGeometry>
        </mxCell>
        <mxCell id="nb8dSJ33XXj_A_fWaeaZ-79" value="Family and friends" style="rounded=0;html=1;labelBackgroundColor=none;startArrow=none;startFill=0;startSize=5;endArrow=none;endFill=0;endSize=5;jettySize=auto;orthogonalLoop=1;strokeWidth=1;fontFamily=Verdana;fontSize=12" parent="1" source="nb8dSJ33XXj_A_fWaeaZ-73" target="nb8dSJ33XXj_A_fWaeaZ-75" edge="1">
          <mxGeometry x="0.2" y="14" relative="1" as="geometry">
            <mxPoint as="offset" />
          </mxGeometry>
        </mxCell>
        <mxCell id="nb8dSJ33XXj_A_fWaeaZ-80" value="With People" style="rounded=0;html=1;labelBackgroundColor=none;startArrow=none;startFill=0;startSize=5;endArrow=none;endFill=0;endSize=5;jettySize=auto;orthogonalLoop=1;strokeWidth=1;fontFamily=Verdana;fontSize=12;exitX=0.25;exitY=1;exitDx=0;exitDy=0;" parent="1" source="nb8dSJ33XXj_A_fWaeaZ-74" target="nb8dSJ33XXj_A_fWaeaZ-76" edge="1">
          <mxGeometry x="-0.2168" y="-14" relative="1" as="geometry">
            <mxPoint as="offset" />
            <mxPoint x="468.26086956521704" y="1279.9999999999995" as="sourcePoint" />
          </mxGeometry>
        </mxCell>
        <mxCell id="nb8dSJ33XXj_A_fWaeaZ-81" value="Solo" style="rounded=0;html=1;labelBackgroundColor=none;startArrow=none;startFill=0;startSize=5;endArrow=none;endFill=0;endSize=5;jettySize=auto;orthogonalLoop=1;strokeWidth=1;fontFamily=Verdana;fontSize=12;exitX=0.5;exitY=1;exitDx=0;exitDy=0;" parent="1" source="nb8dSJ33XXj_A_fWaeaZ-74" target="nb8dSJ33XXj_A_fWaeaZ-77" edge="1">
          <mxGeometry x="-0.2842" y="12" relative="1" as="geometry">
            <mxPoint as="offset" />
            <mxPoint x="554.347826086956" y="1279.9999999999995" as="sourcePoint" />
          </mxGeometry>
        </mxCell>
        <mxCell id="nb8dSJ33XXj_A_fWaeaZ-82" value="Which age group?&amp;nbsp;" style="whiteSpace=wrap;html=1;rounded=0;shadow=1;labelBackgroundColor=none;strokeWidth=2;fontFamily=Verdana;fontSize=12;align=center;" parent="1" vertex="1">
          <mxGeometry x="65" y="1505" width="120" height="60" as="geometry" />
        </mxCell>
        <mxCell id="nb8dSJ33XXj_A_fWaeaZ-84" value="&lt;span&gt;Marketing&lt;br&gt;Hospitality Management&lt;br&gt;&lt;br&gt;&lt;/span&gt;" style="whiteSpace=wrap;html=1;rounded=0;shadow=1;labelBackgroundColor=none;strokeWidth=2;fontFamily=Verdana;fontSize=12;align=center;fillColor=#d5e8d4;strokeColor=#82b366;" parent="1" vertex="1">
          <mxGeometry x="400" y="955" width="140" height="135" as="geometry" />
        </mxCell>
        <mxCell id="nb8dSJ33XXj_A_fWaeaZ-85" value="&lt;span&gt;English&lt;br&gt;Modern Language and Culture&lt;br&gt;Criminal Justice&lt;br&gt;Journalism and Emerging Media&lt;br&gt;&lt;/span&gt;" style="whiteSpace=wrap;html=1;rounded=0;shadow=1;labelBackgroundColor=none;strokeWidth=2;fontFamily=Verdana;fontSize=12;align=center;fillColor=#d5e8d4;strokeColor=#82b366;" parent="1" vertex="1">
          <mxGeometry x="570" y="955" width="190" height="60" as="geometry" />
        </mxCell>
        <mxCell id="nb8dSJ33XXj_A_fWaeaZ-86" value="Yes" style="rounded=0;html=1;labelBackgroundColor=none;startArrow=none;startFill=0;startSize=5;endArrow=none;endFill=0;endSize=5;jettySize=auto;orthogonalLoop=1;strokeWidth=1;fontFamily=Verdana;fontSize=12" parent="1" source="nb8dSJ33XXj_A_fWaeaZ-76" target="nb8dSJ33XXj_A_fWaeaZ-82" edge="1">
          <mxGeometry x="0.1373" y="-16" relative="1" as="geometry">
            <mxPoint as="offset" />
          </mxGeometry>
        </mxCell>
        <mxCell id="nb8dSJ33XXj_A_fWaeaZ-87" value="No" style="rounded=0;html=1;labelBackgroundColor=none;startArrow=none;startFill=0;startSize=5;endArrow=none;endFill=0;endSize=5;jettySize=auto;orthogonalLoop=1;strokeWidth=1;fontFamily=Verdana;fontSize=12;entryX=0.5;entryY=0;entryDx=0;entryDy=0;" parent="1" source="nb8dSJ33XXj_A_fWaeaZ-76" target="nb8dSJ33XXj_A_fWaeaZ-282" edge="1">
          <mxGeometry x="0.1373" y="16" relative="1" as="geometry">
            <mxPoint as="offset" />
            <mxPoint x="306.89189189189165" y="1770" as="targetPoint" />
          </mxGeometry>
        </mxCell>
        <mxCell id="nb8dSJ33XXj_A_fWaeaZ-88" value="Money" style="rounded=0;html=1;labelBackgroundColor=none;startArrow=none;startFill=0;startSize=5;endArrow=none;endFill=0;endSize=5;jettySize=auto;orthogonalLoop=1;strokeWidth=1;fontFamily=Verdana;fontSize=12" parent="1" source="nb8dSJ33XXj_A_fWaeaZ-77" target="nb8dSJ33XXj_A_fWaeaZ-84" edge="1">
          <mxGeometry x="0.0033" y="-12" relative="1" as="geometry">
            <mxPoint as="offset" />
          </mxGeometry>
        </mxCell>
        <mxCell id="nb8dSJ33XXj_A_fWaeaZ-89" value="Peers" style="rounded=0;html=1;labelBackgroundColor=none;startArrow=none;startFill=0;startSize=5;endArrow=none;endFill=0;endSize=5;jettySize=auto;orthogonalLoop=1;strokeWidth=1;fontFamily=Verdana;fontSize=12" parent="1" source="nb8dSJ33XXj_A_fWaeaZ-77" target="nb8dSJ33XXj_A_fWaeaZ-85" edge="1">
          <mxGeometry x="0.1373" y="16" relative="1" as="geometry">
            <mxPoint as="offset" />
          </mxGeometry>
        </mxCell>
        <mxCell id="nb8dSJ33XXj_A_fWaeaZ-90" value="Literature" style="rounded=0;html=1;labelBackgroundColor=none;startArrow=none;startFill=0;startSize=5;endArrow=none;endFill=0;endSize=5;jettySize=auto;orthogonalLoop=1;strokeWidth=1;fontFamily=Verdana;fontSize=12;exitX=0.5;exitY=1;exitDx=0;exitDy=0;" parent="1" source="62893188c0fa7362-1" edge="1">
          <mxGeometry x="-0.4167" relative="1" as="geometry">
            <mxPoint as="offset" />
            <mxPoint x="610" y="257.5" as="sourcePoint" />
            <mxPoint x="670" y="350" as="targetPoint" />
          </mxGeometry>
        </mxCell>
        <mxCell id="nb8dSJ33XXj_A_fWaeaZ-91" value="&lt;span style=&quot;color: rgb(0, 0, 0); font-family: Verdana; font-size: 12px; font-style: normal; font-variant-ligatures: normal; font-variant-caps: normal; font-weight: 400; letter-spacing: normal; orphans: 2; text-align: center; text-indent: 0px; text-transform: none; widows: 2; word-spacing: 0px; -webkit-text-stroke-width: 0px; background-color: rgb(251, 251, 251); text-decoration-thickness: initial; text-decoration-style: initial; text-decoration-color: initial; float: none; display: inline !important;&quot;&gt;Family and friends&lt;/span&gt;" style="text;whiteSpace=wrap;html=1;" parent="1" vertex="1">
          <mxGeometry x="-30" y="410" width="120" height="40" as="geometry" />
        </mxCell>
        <mxCell id="nb8dSJ33XXj_A_fWaeaZ-92" value="&lt;span style=&quot;color: rgb(0, 0, 0); font-family: Verdana; font-size: 12px; font-style: normal; font-variant-ligatures: normal; font-variant-caps: normal; font-weight: 400; letter-spacing: normal; orphans: 2; text-align: center; text-indent: 0px; text-transform: none; widows: 2; word-spacing: 0px; -webkit-text-stroke-width: 0px; background-color: rgb(251, 251, 251); text-decoration-thickness: initial; text-decoration-style: initial; text-decoration-color: initial; float: none; display: inline !important;&quot;&gt;Family and friends&lt;/span&gt;" style="text;whiteSpace=wrap;html=1;" parent="1" vertex="1">
          <mxGeometry x="1450" y="425" width="120" height="40" as="geometry" />
        </mxCell>
        <mxCell id="nb8dSJ33XXj_A_fWaeaZ-96" value="&lt;span&gt;Would you like to work in education?&lt;/span&gt;" style="whiteSpace=wrap;html=1;rounded=1;shadow=1;labelBackgroundColor=none;strokeWidth=1;fontFamily=Verdana;fontSize=12;align=center;" parent="1" vertex="1">
          <mxGeometry x="-1250" y="760" width="120" height="60" as="geometry" />
        </mxCell>
        <mxCell id="nb8dSJ33XXj_A_fWaeaZ-97" value="&lt;span&gt;Would you rather be wealthy or respected by your peers?&amp;nbsp;&lt;/span&gt;" style="whiteSpace=wrap;html=1;rounded=1;shadow=1;labelBackgroundColor=none;strokeWidth=1;fontFamily=Verdana;fontSize=12;align=center;" parent="1" vertex="1">
          <mxGeometry x="-770" y="700" width="120" height="60" as="geometry" />
        </mxCell>
        <mxCell id="nb8dSJ33XXj_A_fWaeaZ-98" value="With people&amp;nbsp;" style="rounded=0;html=1;labelBackgroundColor=none;startArrow=none;startFill=0;startSize=5;endArrow=none;endFill=0;endSize=5;jettySize=auto;orthogonalLoop=1;strokeWidth=1;fontFamily=Verdana;fontSize=12;exitX=0.385;exitY=1.038;exitDx=0;exitDy=0;exitPerimeter=0;" parent="1" source="62893188c0fa7362-9" target="nb8dSJ33XXj_A_fWaeaZ-96" edge="1">
          <mxGeometry x="-0.2168" y="-14" relative="1" as="geometry">
            <mxPoint as="offset" />
            <mxPoint x="-1040" y="480" as="sourcePoint" />
          </mxGeometry>
        </mxCell>
        <mxCell id="nb8dSJ33XXj_A_fWaeaZ-99" value="Solo" style="rounded=0;html=1;labelBackgroundColor=none;startArrow=none;startFill=0;startSize=5;endArrow=none;endFill=0;endSize=5;jettySize=auto;orthogonalLoop=1;strokeWidth=1;fontFamily=Verdana;fontSize=12;exitX=0.75;exitY=1;exitDx=0;exitDy=0;" parent="1" source="62893188c0fa7362-9" target="nb8dSJ33XXj_A_fWaeaZ-97" edge="1">
          <mxGeometry x="-0.2842" y="12" relative="1" as="geometry">
            <mxPoint as="offset" />
            <mxPoint x="-1016" y="480" as="sourcePoint" />
          </mxGeometry>
        </mxCell>
        <mxCell id="nb8dSJ33XXj_A_fWaeaZ-100" value="Which Age Group?" style="whiteSpace=wrap;html=1;rounded=0;shadow=1;labelBackgroundColor=none;strokeWidth=2;fontFamily=Verdana;fontSize=12;align=center;" parent="1" vertex="1">
          <mxGeometry x="-1340" y="865" width="120" height="60" as="geometry" />
        </mxCell>
        <mxCell id="nb8dSJ33XXj_A_fWaeaZ-101" value="&lt;span&gt;Electrical Engineering Technology&lt;/span&gt;" style="whiteSpace=wrap;html=1;rounded=0;shadow=1;labelBackgroundColor=none;strokeWidth=2;fontFamily=Verdana;fontSize=12;align=center;fillColor=#d5e8d4;strokeColor=#82b366;" parent="1" vertex="1">
          <mxGeometry x="-1050" y="1140" width="120" height="60" as="geometry" />
        </mxCell>
        <mxCell id="nb8dSJ33XXj_A_fWaeaZ-102" value="&lt;span&gt;Data Science &amp;amp; Analytics&lt;/span&gt;" style="whiteSpace=wrap;html=1;rounded=0;shadow=1;labelBackgroundColor=none;strokeWidth=2;fontFamily=Verdana;fontSize=12;align=center;fillColor=#d5e8d4;strokeColor=#82b366;" parent="1" vertex="1">
          <mxGeometry x="-900" y="805" width="170" height="75" as="geometry" />
        </mxCell>
        <mxCell id="nb8dSJ33XXj_A_fWaeaZ-103" value="&lt;span&gt;Mathematics&lt;/span&gt;" style="whiteSpace=wrap;html=1;rounded=0;shadow=1;labelBackgroundColor=none;strokeWidth=2;fontFamily=Verdana;fontSize=12;align=center;fillColor=#d5e8d4;strokeColor=#82b366;" parent="1" vertex="1">
          <mxGeometry x="-680" y="805" width="120" height="60" as="geometry" />
        </mxCell>
        <mxCell id="nb8dSJ33XXj_A_fWaeaZ-104" value="Yes" style="rounded=0;html=1;labelBackgroundColor=none;startArrow=none;startFill=0;startSize=5;endArrow=none;endFill=0;endSize=5;jettySize=auto;orthogonalLoop=1;strokeWidth=1;fontFamily=Verdana;fontSize=12" parent="1" source="nb8dSJ33XXj_A_fWaeaZ-96" target="nb8dSJ33XXj_A_fWaeaZ-100" edge="1">
          <mxGeometry x="0.1373" y="-16" relative="1" as="geometry">
            <mxPoint as="offset" />
          </mxGeometry>
        </mxCell>
        <mxCell id="nb8dSJ33XXj_A_fWaeaZ-105" value="No" style="rounded=0;html=1;labelBackgroundColor=none;startArrow=none;startFill=0;startSize=5;endArrow=none;endFill=0;endSize=5;jettySize=auto;orthogonalLoop=1;strokeWidth=1;fontFamily=Verdana;fontSize=12;exitX=0.75;exitY=1;exitDx=0;exitDy=0;" parent="1" source="nb8dSJ33XXj_A_fWaeaZ-96" target="nb8dSJ33XXj_A_fWaeaZ-101" edge="1">
          <mxGeometry x="0.1373" y="16" relative="1" as="geometry">
            <mxPoint as="offset" />
          </mxGeometry>
        </mxCell>
        <mxCell id="nb8dSJ33XXj_A_fWaeaZ-106" value="Money" style="rounded=0;html=1;labelBackgroundColor=none;startArrow=none;startFill=0;startSize=5;endArrow=none;endFill=0;endSize=5;jettySize=auto;orthogonalLoop=1;strokeWidth=1;fontFamily=Verdana;fontSize=12" parent="1" source="nb8dSJ33XXj_A_fWaeaZ-97" target="nb8dSJ33XXj_A_fWaeaZ-102" edge="1">
          <mxGeometry x="0.0033" y="-12" relative="1" as="geometry">
            <mxPoint as="offset" />
          </mxGeometry>
        </mxCell>
        <mxCell id="nb8dSJ33XXj_A_fWaeaZ-107" value="Peers" style="rounded=0;html=1;labelBackgroundColor=none;startArrow=none;startFill=0;startSize=5;endArrow=none;endFill=0;endSize=5;jettySize=auto;orthogonalLoop=1;strokeWidth=1;fontFamily=Verdana;fontSize=12" parent="1" source="nb8dSJ33XXj_A_fWaeaZ-97" target="nb8dSJ33XXj_A_fWaeaZ-103" edge="1">
          <mxGeometry x="0.1373" y="16" relative="1" as="geometry">
            <mxPoint as="offset" />
          </mxGeometry>
        </mxCell>
        <mxCell id="nb8dSJ33XXj_A_fWaeaZ-108" value="&lt;span&gt;Would you like to work in education?&lt;/span&gt;" style="whiteSpace=wrap;html=1;rounded=1;shadow=1;labelBackgroundColor=none;strokeWidth=1;fontFamily=Verdana;fontSize=12;align=center;" parent="1" vertex="1">
          <mxGeometry x="-230" y="890" width="120" height="60" as="geometry" />
        </mxCell>
        <mxCell id="nb8dSJ33XXj_A_fWaeaZ-109" value="&lt;span&gt;Would you rather be wealthy or respected by your peers?&amp;nbsp;&lt;/span&gt;" style="whiteSpace=wrap;html=1;rounded=1;shadow=1;labelBackgroundColor=none;strokeWidth=1;fontFamily=Verdana;fontSize=12;align=center;" parent="1" vertex="1">
          <mxGeometry x="40" y="715" width="120" height="60" as="geometry" />
        </mxCell>
        <mxCell id="nb8dSJ33XXj_A_fWaeaZ-110" value="With people&amp;nbsp;" style="rounded=0;html=1;labelBackgroundColor=none;startArrow=none;startFill=0;startSize=5;endArrow=none;endFill=0;endSize=5;jettySize=auto;orthogonalLoop=1;strokeWidth=1;fontFamily=Verdana;fontSize=12;exitX=0.5;exitY=1;exitDx=0;exitDy=0;" parent="1" source="nb8dSJ33XXj_A_fWaeaZ-4" target="nb8dSJ33XXj_A_fWaeaZ-108" edge="1">
          <mxGeometry x="-0.2168" y="-14" relative="1" as="geometry">
            <mxPoint as="offset" />
            <mxPoint x="380" y="710" as="sourcePoint" />
          </mxGeometry>
        </mxCell>
        <mxCell id="nb8dSJ33XXj_A_fWaeaZ-111" value="Solo" style="rounded=0;html=1;labelBackgroundColor=none;startArrow=none;startFill=0;startSize=5;endArrow=none;endFill=0;endSize=5;jettySize=auto;orthogonalLoop=1;strokeWidth=1;fontFamily=Verdana;fontSize=12;exitX=0.587;exitY=1.05;exitDx=0;exitDy=0;exitPerimeter=0;" parent="1" source="nb8dSJ33XXj_A_fWaeaZ-4" target="nb8dSJ33XXj_A_fWaeaZ-109" edge="1">
          <mxGeometry x="-0.2842" y="12" relative="1" as="geometry">
            <mxPoint as="offset" />
            <mxPoint x="404" y="710" as="sourcePoint" />
          </mxGeometry>
        </mxCell>
        <mxCell id="nb8dSJ33XXj_A_fWaeaZ-112" value="Which Age group?&amp;nbsp;" style="whiteSpace=wrap;html=1;rounded=0;shadow=1;labelBackgroundColor=none;strokeWidth=2;fontFamily=Verdana;fontSize=12;align=center;" parent="1" vertex="1">
          <mxGeometry x="-320" y="995" width="120" height="60" as="geometry" />
        </mxCell>
        <mxCell id="nb8dSJ33XXj_A_fWaeaZ-113" value="&lt;span&gt;Public Health Education&lt;/span&gt;" style="whiteSpace=wrap;html=1;rounded=0;shadow=1;labelBackgroundColor=none;strokeWidth=2;fontFamily=Verdana;fontSize=12;align=center;fillColor=#d5e8d4;strokeColor=#82b366;" parent="1" vertex="1">
          <mxGeometry x="-140" y="995" width="120" height="60" as="geometry" />
        </mxCell>
        <mxCell id="nb8dSJ33XXj_A_fWaeaZ-114" value="&lt;span&gt;Technical Communication&lt;/span&gt;" style="whiteSpace=wrap;html=1;rounded=0;shadow=1;labelBackgroundColor=none;strokeWidth=2;fontFamily=Verdana;fontSize=12;align=center;fillColor=#d5e8d4;strokeColor=#82b366;" parent="1" vertex="1">
          <mxGeometry x="-40" y="820" width="120" height="60" as="geometry" />
        </mxCell>
        <mxCell id="nb8dSJ33XXj_A_fWaeaZ-115" value="&lt;span&gt;Geospatial Science&lt;br&gt;Environmental Engineering&lt;br&gt;&lt;/span&gt;" style="whiteSpace=wrap;html=1;rounded=0;shadow=1;labelBackgroundColor=none;strokeWidth=2;fontFamily=Verdana;fontSize=12;align=center;fillColor=#d5e8d4;strokeColor=#82b366;" parent="1" vertex="1">
          <mxGeometry x="130" y="820" width="160" height="60" as="geometry" />
        </mxCell>
        <mxCell id="nb8dSJ33XXj_A_fWaeaZ-116" value="Yes" style="rounded=0;html=1;labelBackgroundColor=none;startArrow=none;startFill=0;startSize=5;endArrow=none;endFill=0;endSize=5;jettySize=auto;orthogonalLoop=1;strokeWidth=1;fontFamily=Verdana;fontSize=12" parent="1" source="nb8dSJ33XXj_A_fWaeaZ-108" target="nb8dSJ33XXj_A_fWaeaZ-112" edge="1">
          <mxGeometry x="0.1373" y="-16" relative="1" as="geometry">
            <mxPoint as="offset" />
          </mxGeometry>
        </mxCell>
        <mxCell id="nb8dSJ33XXj_A_fWaeaZ-117" value="No" style="rounded=0;html=1;labelBackgroundColor=none;startArrow=none;startFill=0;startSize=5;endArrow=none;endFill=0;endSize=5;jettySize=auto;orthogonalLoop=1;strokeWidth=1;fontFamily=Verdana;fontSize=12" parent="1" source="nb8dSJ33XXj_A_fWaeaZ-108" target="nb8dSJ33XXj_A_fWaeaZ-113" edge="1">
          <mxGeometry x="0.1373" y="16" relative="1" as="geometry">
            <mxPoint as="offset" />
          </mxGeometry>
        </mxCell>
        <mxCell id="nb8dSJ33XXj_A_fWaeaZ-118" value="Money" style="rounded=0;html=1;labelBackgroundColor=none;startArrow=none;startFill=0;startSize=5;endArrow=none;endFill=0;endSize=5;jettySize=auto;orthogonalLoop=1;strokeWidth=1;fontFamily=Verdana;fontSize=12" parent="1" source="nb8dSJ33XXj_A_fWaeaZ-109" target="nb8dSJ33XXj_A_fWaeaZ-114" edge="1">
          <mxGeometry x="0.0033" y="-12" relative="1" as="geometry">
            <mxPoint as="offset" />
          </mxGeometry>
        </mxCell>
        <mxCell id="nb8dSJ33XXj_A_fWaeaZ-119" value="Peers" style="rounded=0;html=1;labelBackgroundColor=none;startArrow=none;startFill=0;startSize=5;endArrow=none;endFill=0;endSize=5;jettySize=auto;orthogonalLoop=1;strokeWidth=1;fontFamily=Verdana;fontSize=12" parent="1" source="nb8dSJ33XXj_A_fWaeaZ-109" target="nb8dSJ33XXj_A_fWaeaZ-115" edge="1">
          <mxGeometry x="0.1373" y="16" relative="1" as="geometry">
            <mxPoint as="offset" />
          </mxGeometry>
        </mxCell>
        <mxCell id="nb8dSJ33XXj_A_fWaeaZ-120" value="&lt;span&gt;Would you like to work in education?&lt;/span&gt;" style="whiteSpace=wrap;html=1;rounded=1;shadow=1;labelBackgroundColor=none;strokeWidth=1;fontFamily=Verdana;fontSize=12;align=center;" parent="1" vertex="1">
          <mxGeometry x="790" y="1160" width="120" height="60" as="geometry" />
        </mxCell>
        <mxCell id="nb8dSJ33XXj_A_fWaeaZ-121" value="&lt;span&gt;Would you rather be wealthy or respected by your peers?&amp;nbsp;&lt;/span&gt;" style="whiteSpace=wrap;html=1;rounded=1;shadow=1;labelBackgroundColor=none;strokeWidth=1;fontFamily=Verdana;fontSize=12;align=center;" parent="1" vertex="1">
          <mxGeometry x="1000" y="590" width="120" height="60" as="geometry" />
        </mxCell>
        <mxCell id="nb8dSJ33XXj_A_fWaeaZ-122" value="With people&amp;nbsp;" style="rounded=0;html=1;labelBackgroundColor=none;startArrow=none;startFill=0;startSize=5;endArrow=none;endFill=0;endSize=5;jettySize=auto;orthogonalLoop=1;strokeWidth=1;fontFamily=Verdana;fontSize=12;exitX=0.373;exitY=1.026;exitDx=0;exitDy=0;exitPerimeter=0;" parent="1" source="nb8dSJ33XXj_A_fWaeaZ-75" target="nb8dSJ33XXj_A_fWaeaZ-120" edge="1">
          <mxGeometry x="-0.2168" y="-14" relative="1" as="geometry">
            <mxPoint as="offset" />
            <mxPoint x="1466" y="660" as="sourcePoint" />
          </mxGeometry>
        </mxCell>
        <mxCell id="nb8dSJ33XXj_A_fWaeaZ-123" value="Solo" style="rounded=0;html=1;labelBackgroundColor=none;startArrow=none;startFill=0;startSize=5;endArrow=none;endFill=0;endSize=5;jettySize=auto;orthogonalLoop=1;strokeWidth=1;fontFamily=Verdana;fontSize=12;exitX=0.658;exitY=0.979;exitDx=0;exitDy=0;exitPerimeter=0;" parent="1" source="nb8dSJ33XXj_A_fWaeaZ-75" target="nb8dSJ33XXj_A_fWaeaZ-121" edge="1">
          <mxGeometry x="-0.2842" y="12" relative="1" as="geometry">
            <mxPoint as="offset" />
            <mxPoint x="1490" y="660" as="sourcePoint" />
          </mxGeometry>
        </mxCell>
        <mxCell id="nb8dSJ33XXj_A_fWaeaZ-124" value="Which age group?&amp;nbsp;" style="whiteSpace=wrap;html=1;rounded=0;shadow=1;labelBackgroundColor=none;strokeWidth=2;fontFamily=Verdana;fontSize=12;align=center;" parent="1" vertex="1">
          <mxGeometry x="690" y="1300" width="120" height="60" as="geometry" />
        </mxCell>
        <mxCell id="nb8dSJ33XXj_A_fWaeaZ-126" value="&lt;span&gt;Technical Communication&lt;/span&gt;" style="whiteSpace=wrap;html=1;rounded=0;shadow=1;labelBackgroundColor=none;strokeWidth=2;fontFamily=Verdana;fontSize=12;align=center;fillColor=#d5e8d4;strokeColor=#82b366;" parent="1" vertex="1">
          <mxGeometry x="870" y="895" width="140" height="60" as="geometry" />
        </mxCell>
        <mxCell id="nb8dSJ33XXj_A_fWaeaZ-127" value="&lt;span&gt;English&lt;br&gt;&lt;/span&gt;" style="whiteSpace=wrap;html=1;rounded=0;shadow=1;labelBackgroundColor=none;strokeWidth=2;fontFamily=Verdana;fontSize=12;align=center;fillColor=#d5e8d4;strokeColor=#82b366;" parent="1" vertex="1">
          <mxGeometry x="955" y="1110" width="210" height="60" as="geometry" />
        </mxCell>
        <mxCell id="nb8dSJ33XXj_A_fWaeaZ-128" value="Yes" style="rounded=0;html=1;labelBackgroundColor=none;startArrow=none;startFill=0;startSize=5;endArrow=none;endFill=0;endSize=5;jettySize=auto;orthogonalLoop=1;strokeWidth=1;fontFamily=Verdana;fontSize=12" parent="1" source="nb8dSJ33XXj_A_fWaeaZ-120" target="nb8dSJ33XXj_A_fWaeaZ-124" edge="1">
          <mxGeometry x="0.1373" y="-16" relative="1" as="geometry">
            <mxPoint as="offset" />
          </mxGeometry>
        </mxCell>
        <mxCell id="nb8dSJ33XXj_A_fWaeaZ-129" value="No" style="rounded=0;html=1;labelBackgroundColor=none;startArrow=none;startFill=0;startSize=5;endArrow=none;endFill=0;endSize=5;jettySize=auto;orthogonalLoop=1;strokeWidth=1;fontFamily=Verdana;fontSize=12;entryX=0.5;entryY=0;entryDx=0;entryDy=0;" parent="1" source="nb8dSJ33XXj_A_fWaeaZ-120" target="nb8dSJ33XXj_A_fWaeaZ-288" edge="1">
          <mxGeometry x="0.1373" y="16" relative="1" as="geometry">
            <mxPoint as="offset" />
            <mxPoint x="1009.2857142857156" y="1380" as="targetPoint" />
          </mxGeometry>
        </mxCell>
        <mxCell id="nb8dSJ33XXj_A_fWaeaZ-130" value="Money" style="rounded=0;html=1;labelBackgroundColor=none;startArrow=none;startFill=0;startSize=5;endArrow=none;endFill=0;endSize=5;jettySize=auto;orthogonalLoop=1;strokeWidth=1;fontFamily=Verdana;fontSize=12" parent="1" source="nb8dSJ33XXj_A_fWaeaZ-121" target="nb8dSJ33XXj_A_fWaeaZ-126" edge="1">
          <mxGeometry x="0.0033" y="-12" relative="1" as="geometry">
            <mxPoint as="offset" />
          </mxGeometry>
        </mxCell>
        <mxCell id="nb8dSJ33XXj_A_fWaeaZ-131" value="Peers" style="rounded=0;html=1;labelBackgroundColor=none;startArrow=none;startFill=0;startSize=5;endArrow=none;endFill=0;endSize=5;jettySize=auto;orthogonalLoop=1;strokeWidth=1;fontFamily=Verdana;fontSize=12" parent="1" source="nb8dSJ33XXj_A_fWaeaZ-121" target="nb8dSJ33XXj_A_fWaeaZ-127" edge="1">
          <mxGeometry x="0.1373" y="16" relative="1" as="geometry">
            <mxPoint as="offset" />
          </mxGeometry>
        </mxCell>
        <mxCell id="nb8dSJ33XXj_A_fWaeaZ-132" value="&lt;span&gt;Would you like to work in education?&lt;/span&gt;" style="whiteSpace=wrap;html=1;rounded=1;shadow=1;labelBackgroundColor=none;strokeWidth=1;fontFamily=Verdana;fontSize=12;align=center;" parent="1" vertex="1">
          <mxGeometry x="1960" y="1130" width="120" height="60" as="geometry" />
        </mxCell>
        <mxCell id="nb8dSJ33XXj_A_fWaeaZ-133" value="&lt;span&gt;Would you rather be wealthy or respected by your peers?&amp;nbsp;&lt;/span&gt;" style="whiteSpace=wrap;html=1;rounded=1;shadow=1;labelBackgroundColor=none;strokeWidth=1;fontFamily=Verdana;fontSize=12;align=center;" parent="1" vertex="1">
          <mxGeometry x="2080" y="837.5" width="120" height="60" as="geometry" />
        </mxCell>
        <mxCell id="nb8dSJ33XXj_A_fWaeaZ-134" value="With people&amp;nbsp;" style="rounded=0;html=1;labelBackgroundColor=none;startArrow=none;startFill=0;startSize=5;endArrow=none;endFill=0;endSize=5;jettySize=auto;orthogonalLoop=1;strokeWidth=1;fontFamily=Verdana;fontSize=12;exitX=0.408;exitY=0.99;exitDx=0;exitDy=0;exitPerimeter=0;" parent="1" source="nb8dSJ33XXj_A_fWaeaZ-40" target="nb8dSJ33XXj_A_fWaeaZ-132" edge="1">
          <mxGeometry x="-0.2168" y="-14" relative="1" as="geometry">
            <mxPoint as="offset" />
            <mxPoint x="2610" y="1140" as="sourcePoint" />
          </mxGeometry>
        </mxCell>
        <mxCell id="nb8dSJ33XXj_A_fWaeaZ-135" value="Solo" style="rounded=0;html=1;labelBackgroundColor=none;startArrow=none;startFill=0;startSize=5;endArrow=none;endFill=0;endSize=5;jettySize=auto;orthogonalLoop=1;strokeWidth=1;fontFamily=Verdana;fontSize=12;" parent="1" source="nb8dSJ33XXj_A_fWaeaZ-40" target="nb8dSJ33XXj_A_fWaeaZ-133" edge="1">
          <mxGeometry x="-0.2842" y="12" relative="1" as="geometry">
            <mxPoint as="offset" />
            <mxPoint x="2634" y="1140" as="sourcePoint" />
          </mxGeometry>
        </mxCell>
        <mxCell id="nb8dSJ33XXj_A_fWaeaZ-136" value="Which age group?&amp;nbsp;" style="whiteSpace=wrap;html=1;rounded=0;shadow=1;labelBackgroundColor=none;strokeWidth=2;fontFamily=Verdana;fontSize=12;align=center;" parent="1" vertex="1">
          <mxGeometry x="1870" y="1235" width="120" height="60" as="geometry" />
        </mxCell>
        <mxCell id="nb8dSJ33XXj_A_fWaeaZ-138" value="International Affairs" style="whiteSpace=wrap;html=1;rounded=0;shadow=1;labelBackgroundColor=none;strokeWidth=2;fontFamily=Verdana;fontSize=12;align=center;fillColor=#d5e8d4;strokeColor=#82b366;" parent="1" vertex="1">
          <mxGeometry x="2000" y="942.5" width="120" height="60" as="geometry" />
        </mxCell>
        <mxCell id="nb8dSJ33XXj_A_fWaeaZ-139" value="&lt;span&gt;Anthropology&lt;br&gt;Philosophy&lt;br&gt;Geography&lt;br&gt;&lt;/span&gt;" style="whiteSpace=wrap;html=1;rounded=0;shadow=1;labelBackgroundColor=none;strokeWidth=2;fontFamily=Verdana;fontSize=12;align=center;fillColor=#d5e8d4;strokeColor=#82b366;" parent="1" vertex="1">
          <mxGeometry x="2170" y="942.5" width="120" height="60" as="geometry" />
        </mxCell>
        <mxCell id="nb8dSJ33XXj_A_fWaeaZ-140" value="Yes" style="rounded=0;html=1;labelBackgroundColor=none;startArrow=none;startFill=0;startSize=5;endArrow=none;endFill=0;endSize=5;jettySize=auto;orthogonalLoop=1;strokeWidth=1;fontFamily=Verdana;fontSize=12" parent="1" source="nb8dSJ33XXj_A_fWaeaZ-132" target="nb8dSJ33XXj_A_fWaeaZ-136" edge="1">
          <mxGeometry x="0.1373" y="-16" relative="1" as="geometry">
            <mxPoint as="offset" />
          </mxGeometry>
        </mxCell>
        <mxCell id="nb8dSJ33XXj_A_fWaeaZ-141" value="No" style="rounded=0;html=1;labelBackgroundColor=none;startArrow=none;startFill=0;startSize=5;endArrow=none;endFill=0;endSize=5;jettySize=auto;orthogonalLoop=1;strokeWidth=1;fontFamily=Verdana;fontSize=12;entryX=0.5;entryY=0;entryDx=0;entryDy=0;" parent="1" source="nb8dSJ33XXj_A_fWaeaZ-132" target="nb8dSJ33XXj_A_fWaeaZ-311" edge="1">
          <mxGeometry x="0.1373" y="16" relative="1" as="geometry">
            <mxPoint as="offset" />
            <mxPoint x="2110" y="1320" as="targetPoint" />
          </mxGeometry>
        </mxCell>
        <mxCell id="nb8dSJ33XXj_A_fWaeaZ-142" value="Money" style="rounded=0;html=1;labelBackgroundColor=none;startArrow=none;startFill=0;startSize=5;endArrow=none;endFill=0;endSize=5;jettySize=auto;orthogonalLoop=1;strokeWidth=1;fontFamily=Verdana;fontSize=12" parent="1" source="nb8dSJ33XXj_A_fWaeaZ-133" target="nb8dSJ33XXj_A_fWaeaZ-138" edge="1">
          <mxGeometry x="0.0033" y="-12" relative="1" as="geometry">
            <mxPoint as="offset" />
          </mxGeometry>
        </mxCell>
        <mxCell id="nb8dSJ33XXj_A_fWaeaZ-143" value="Peers" style="rounded=0;html=1;labelBackgroundColor=none;startArrow=none;startFill=0;startSize=5;endArrow=none;endFill=0;endSize=5;jettySize=auto;orthogonalLoop=1;strokeWidth=1;fontFamily=Verdana;fontSize=12" parent="1" source="nb8dSJ33XXj_A_fWaeaZ-133" target="nb8dSJ33XXj_A_fWaeaZ-139" edge="1">
          <mxGeometry x="0.1373" y="16" relative="1" as="geometry">
            <mxPoint as="offset" />
          </mxGeometry>
        </mxCell>
        <mxCell id="nb8dSJ33XXj_A_fWaeaZ-144" value="&lt;span&gt;Would you like to work in education?&lt;/span&gt;" style="whiteSpace=wrap;html=1;rounded=1;shadow=1;labelBackgroundColor=none;strokeWidth=1;fontFamily=Verdana;fontSize=12;align=center;" parent="1" vertex="1">
          <mxGeometry x="2700" y="1140" width="120" height="60" as="geometry" />
        </mxCell>
        <mxCell id="nb8dSJ33XXj_A_fWaeaZ-145" value="&lt;span&gt;Would you rather be wealthy or respected by your peers?&amp;nbsp;&lt;/span&gt;" style="whiteSpace=wrap;html=1;rounded=1;shadow=1;labelBackgroundColor=none;strokeWidth=1;fontFamily=Verdana;fontSize=12;align=center;" parent="1" vertex="1">
          <mxGeometry x="2640" y="820" width="120" height="60" as="geometry" />
        </mxCell>
        <mxCell id="nb8dSJ33XXj_A_fWaeaZ-146" value="With people&amp;nbsp;" style="rounded=0;html=1;labelBackgroundColor=none;startArrow=none;startFill=0;startSize=5;endArrow=none;endFill=0;endSize=5;jettySize=auto;orthogonalLoop=1;strokeWidth=1;fontFamily=Verdana;fontSize=12;exitX=0.182;exitY=0.979;exitDx=0;exitDy=0;exitPerimeter=0;" parent="1" source="nb8dSJ33XXj_A_fWaeaZ-57" target="nb8dSJ33XXj_A_fWaeaZ-144" edge="1">
          <mxGeometry x="-0.2168" y="-14" relative="1" as="geometry">
            <mxPoint as="offset" />
            <mxPoint x="3300" y="1140" as="sourcePoint" />
          </mxGeometry>
        </mxCell>
        <mxCell id="nb8dSJ33XXj_A_fWaeaZ-147" value="Solo" style="rounded=0;html=1;labelBackgroundColor=none;startArrow=none;startFill=0;startSize=5;endArrow=none;endFill=0;endSize=5;jettySize=auto;orthogonalLoop=1;strokeWidth=1;fontFamily=Verdana;fontSize=12;exitX=0.396;exitY=1.002;exitDx=0;exitDy=0;exitPerimeter=0;" parent="1" source="nb8dSJ33XXj_A_fWaeaZ-57" target="nb8dSJ33XXj_A_fWaeaZ-145" edge="1">
          <mxGeometry x="-0.2842" y="12" relative="1" as="geometry">
            <mxPoint as="offset" />
            <mxPoint x="3324" y="1140" as="sourcePoint" />
          </mxGeometry>
        </mxCell>
        <mxCell id="nb8dSJ33XXj_A_fWaeaZ-148" value="Which age group?&amp;nbsp;" style="whiteSpace=wrap;html=1;rounded=0;shadow=1;labelBackgroundColor=none;strokeWidth=2;fontFamily=Verdana;fontSize=12;align=center;" parent="1" vertex="1">
          <mxGeometry x="2610" y="1245" width="120" height="60" as="geometry" />
        </mxCell>
        <mxCell id="nb8dSJ33XXj_A_fWaeaZ-149" value="&lt;span&gt;Media and Entertainment&lt;br&gt;Digital Animation&lt;br&gt;Theatre and Performance Studies&lt;br&gt;&lt;/span&gt;" style="whiteSpace=wrap;html=1;rounded=0;shadow=1;labelBackgroundColor=none;strokeWidth=2;fontFamily=Verdana;fontSize=12;align=center;fillColor=#d5e8d4;strokeColor=#82b366;" parent="1" vertex="1">
          <mxGeometry x="2760" y="1245" width="180" height="60" as="geometry" />
        </mxCell>
        <mxCell id="nb8dSJ33XXj_A_fWaeaZ-150" value="Architecture&lt;span&gt;&lt;br&gt;&lt;/span&gt;" style="whiteSpace=wrap;html=1;rounded=0;shadow=1;labelBackgroundColor=none;strokeWidth=2;fontFamily=Verdana;fontSize=12;align=center;fillColor=#d5e8d4;strokeColor=#82b366;" parent="1" vertex="1">
          <mxGeometry x="2560" y="925" width="140" height="60" as="geometry" />
        </mxCell>
        <mxCell id="nb8dSJ33XXj_A_fWaeaZ-151" value="Textile and Surface Design&lt;span&gt;&lt;br&gt;&lt;/span&gt;" style="whiteSpace=wrap;html=1;rounded=0;shadow=1;labelBackgroundColor=none;strokeWidth=2;fontFamily=Verdana;fontSize=12;align=center;fillColor=#d5e8d4;strokeColor=#82b366;" parent="1" vertex="1">
          <mxGeometry x="2730" y="925" width="170" height="60" as="geometry" />
        </mxCell>
        <mxCell id="nb8dSJ33XXj_A_fWaeaZ-152" value="Yes" style="rounded=0;html=1;labelBackgroundColor=none;startArrow=none;startFill=0;startSize=5;endArrow=none;endFill=0;endSize=5;jettySize=auto;orthogonalLoop=1;strokeWidth=1;fontFamily=Verdana;fontSize=12" parent="1" source="nb8dSJ33XXj_A_fWaeaZ-144" target="nb8dSJ33XXj_A_fWaeaZ-148" edge="1">
          <mxGeometry x="0.1373" y="-16" relative="1" as="geometry">
            <mxPoint as="offset" />
          </mxGeometry>
        </mxCell>
        <mxCell id="nb8dSJ33XXj_A_fWaeaZ-153" value="No" style="rounded=0;html=1;labelBackgroundColor=none;startArrow=none;startFill=0;startSize=5;endArrow=none;endFill=0;endSize=5;jettySize=auto;orthogonalLoop=1;strokeWidth=1;fontFamily=Verdana;fontSize=12" parent="1" source="nb8dSJ33XXj_A_fWaeaZ-144" target="nb8dSJ33XXj_A_fWaeaZ-149" edge="1">
          <mxGeometry x="0.1373" y="16" relative="1" as="geometry">
            <mxPoint as="offset" />
          </mxGeometry>
        </mxCell>
        <mxCell id="nb8dSJ33XXj_A_fWaeaZ-154" value="Money" style="rounded=0;html=1;labelBackgroundColor=none;startArrow=none;startFill=0;startSize=5;endArrow=none;endFill=0;endSize=5;jettySize=auto;orthogonalLoop=1;strokeWidth=1;fontFamily=Verdana;fontSize=12" parent="1" source="nb8dSJ33XXj_A_fWaeaZ-145" target="nb8dSJ33XXj_A_fWaeaZ-150" edge="1">
          <mxGeometry x="0.0033" y="-12" relative="1" as="geometry">
            <mxPoint as="offset" />
          </mxGeometry>
        </mxCell>
        <mxCell id="nb8dSJ33XXj_A_fWaeaZ-155" value="Peers" style="rounded=0;html=1;labelBackgroundColor=none;startArrow=none;startFill=0;startSize=5;endArrow=none;endFill=0;endSize=5;jettySize=auto;orthogonalLoop=1;strokeWidth=1;fontFamily=Verdana;fontSize=12" parent="1" source="nb8dSJ33XXj_A_fWaeaZ-145" target="nb8dSJ33XXj_A_fWaeaZ-151" edge="1">
          <mxGeometry x="0.1373" y="16" relative="1" as="geometry">
            <mxPoint as="offset" />
          </mxGeometry>
        </mxCell>
        <mxCell id="nb8dSJ33XXj_A_fWaeaZ-156" value="&lt;span&gt;Would you like to work in education?&lt;/span&gt;" style="whiteSpace=wrap;html=1;rounded=1;shadow=1;labelBackgroundColor=none;strokeWidth=1;fontFamily=Verdana;fontSize=12;align=center;" parent="1" vertex="1">
          <mxGeometry x="2810" y="740" width="120" height="60" as="geometry" />
        </mxCell>
        <mxCell id="nb8dSJ33XXj_A_fWaeaZ-157" value="&lt;span&gt;Would you rather be wealthy or respected by your peers?&amp;nbsp;&lt;/span&gt;" style="whiteSpace=wrap;html=1;rounded=1;shadow=1;labelBackgroundColor=none;strokeWidth=1;fontFamily=Verdana;fontSize=12;align=center;" parent="1" vertex="1">
          <mxGeometry x="3620" y="745" width="120" height="60" as="geometry" />
        </mxCell>
        <mxCell id="nb8dSJ33XXj_A_fWaeaZ-158" value="With people&amp;nbsp;" style="rounded=0;html=1;labelBackgroundColor=none;startArrow=none;startFill=0;startSize=5;endArrow=none;endFill=0;endSize=5;jettySize=auto;orthogonalLoop=1;strokeWidth=1;fontFamily=Verdana;fontSize=12;exitX=0.5;exitY=1;exitDx=0;exitDy=0;" parent="1" source="nb8dSJ33XXj_A_fWaeaZ-58" target="nb8dSJ33XXj_A_fWaeaZ-156" edge="1">
          <mxGeometry x="-0.2168" y="-14" relative="1" as="geometry">
            <mxPoint as="offset" />
            <mxPoint x="4060" y="1130" as="sourcePoint" />
          </mxGeometry>
        </mxCell>
        <mxCell id="nb8dSJ33XXj_A_fWaeaZ-159" value="Solo" style="rounded=0;html=1;labelBackgroundColor=none;startArrow=none;startFill=0;startSize=5;endArrow=none;endFill=0;endSize=5;jettySize=auto;orthogonalLoop=1;strokeWidth=1;fontFamily=Verdana;fontSize=12;exitX=1;exitY=0.75;exitDx=0;exitDy=0;" parent="1" source="nb8dSJ33XXj_A_fWaeaZ-58" target="nb8dSJ33XXj_A_fWaeaZ-157" edge="1">
          <mxGeometry x="-0.2842" y="12" relative="1" as="geometry">
            <mxPoint as="offset" />
            <mxPoint x="4084" y="1130" as="sourcePoint" />
          </mxGeometry>
        </mxCell>
        <mxCell id="nb8dSJ33XXj_A_fWaeaZ-160" value="Which age group?&amp;nbsp;" style="whiteSpace=wrap;html=1;rounded=0;shadow=1;labelBackgroundColor=none;strokeWidth=2;fontFamily=Verdana;fontSize=12;align=center;" parent="1" vertex="1">
          <mxGeometry x="2930" y="850" width="120" height="60" as="geometry" />
        </mxCell>
        <mxCell id="nb8dSJ33XXj_A_fWaeaZ-161" value="&lt;span&gt;Theatre and Performance Studies&lt;br&gt;&lt;br&gt;&lt;/span&gt;" style="whiteSpace=wrap;html=1;rounded=0;shadow=1;labelBackgroundColor=none;strokeWidth=2;fontFamily=Verdana;fontSize=12;align=center;fillColor=#d5e8d4;strokeColor=#82b366;" parent="1" vertex="1">
          <mxGeometry x="3200" y="845" width="170" height="60" as="geometry" />
        </mxCell>
        <mxCell id="nb8dSJ33XXj_A_fWaeaZ-162" value="&lt;span&gt;Digital Animation&lt;/span&gt;" style="whiteSpace=wrap;html=1;rounded=0;shadow=1;labelBackgroundColor=none;strokeWidth=2;fontFamily=Verdana;fontSize=12;align=center;fillColor=#d5e8d4;strokeColor=#82b366;" parent="1" vertex="1">
          <mxGeometry x="3540" y="850" width="120" height="60" as="geometry" />
        </mxCell>
        <mxCell id="nb8dSJ33XXj_A_fWaeaZ-163" value="&lt;span&gt;Art&lt;br&gt;Textile and Surface&lt;br&gt;Digital Animation&lt;br&gt;&lt;/span&gt;" style="whiteSpace=wrap;html=1;rounded=0;shadow=1;labelBackgroundColor=none;strokeWidth=2;fontFamily=Verdana;fontSize=12;align=center;fillColor=#d5e8d4;strokeColor=#82b366;" parent="1" vertex="1">
          <mxGeometry x="3710" y="850" width="120" height="60" as="geometry" />
        </mxCell>
        <mxCell id="nb8dSJ33XXj_A_fWaeaZ-164" value="Yes" style="rounded=0;html=1;labelBackgroundColor=none;startArrow=none;startFill=0;startSize=5;endArrow=none;endFill=0;endSize=5;jettySize=auto;orthogonalLoop=1;strokeWidth=1;fontFamily=Verdana;fontSize=12" parent="1" source="nb8dSJ33XXj_A_fWaeaZ-156" target="nb8dSJ33XXj_A_fWaeaZ-160" edge="1">
          <mxGeometry x="0.1373" y="-16" relative="1" as="geometry">
            <mxPoint as="offset" />
          </mxGeometry>
        </mxCell>
        <mxCell id="nb8dSJ33XXj_A_fWaeaZ-165" value="No" style="rounded=0;html=1;labelBackgroundColor=none;startArrow=none;startFill=0;startSize=5;endArrow=none;endFill=0;endSize=5;jettySize=auto;orthogonalLoop=1;strokeWidth=1;fontFamily=Verdana;fontSize=12" parent="1" source="nb8dSJ33XXj_A_fWaeaZ-156" target="nb8dSJ33XXj_A_fWaeaZ-161" edge="1">
          <mxGeometry x="0.1373" y="16" relative="1" as="geometry">
            <mxPoint as="offset" />
          </mxGeometry>
        </mxCell>
        <mxCell id="nb8dSJ33XXj_A_fWaeaZ-166" value="Money" style="rounded=0;html=1;labelBackgroundColor=none;startArrow=none;startFill=0;startSize=5;endArrow=none;endFill=0;endSize=5;jettySize=auto;orthogonalLoop=1;strokeWidth=1;fontFamily=Verdana;fontSize=12" parent="1" source="nb8dSJ33XXj_A_fWaeaZ-157" target="nb8dSJ33XXj_A_fWaeaZ-162" edge="1">
          <mxGeometry x="0.0033" y="-12" relative="1" as="geometry">
            <mxPoint as="offset" />
          </mxGeometry>
        </mxCell>
        <mxCell id="nb8dSJ33XXj_A_fWaeaZ-167" value="Peers" style="rounded=0;html=1;labelBackgroundColor=none;startArrow=none;startFill=0;startSize=5;endArrow=none;endFill=0;endSize=5;jettySize=auto;orthogonalLoop=1;strokeWidth=1;fontFamily=Verdana;fontSize=12" parent="1" source="nb8dSJ33XXj_A_fWaeaZ-157" target="nb8dSJ33XXj_A_fWaeaZ-163" edge="1">
          <mxGeometry x="0.1373" y="16" relative="1" as="geometry">
            <mxPoint as="offset" />
          </mxGeometry>
        </mxCell>
        <mxCell id="nb8dSJ33XXj_A_fWaeaZ-168" value="Secondary Education&lt;br&gt;Mathematics&lt;br&gt;Physics" style="whiteSpace=wrap;html=1;rounded=0;shadow=1;labelBackgroundColor=none;strokeWidth=2;fontFamily=Verdana;fontSize=12;align=center;fillColor=#d5e8d4;strokeColor=#82b366;" parent="1" vertex="1">
          <mxGeometry x="-3050" y="1260" width="120" height="60" as="geometry" />
        </mxCell>
        <mxCell id="nb8dSJ33XXj_A_fWaeaZ-169" value="Midle Grades Education" style="whiteSpace=wrap;html=1;rounded=0;shadow=1;labelBackgroundColor=none;strokeWidth=2;fontFamily=Verdana;fontSize=12;align=center;fillColor=#d5e8d4;strokeColor=#82b366;" parent="1" vertex="1">
          <mxGeometry x="-3200" y="1260" width="120" height="60" as="geometry" />
        </mxCell>
        <mxCell id="nb8dSJ33XXj_A_fWaeaZ-170" value="Elementary Education" style="whiteSpace=wrap;html=1;rounded=0;shadow=1;labelBackgroundColor=none;strokeWidth=2;fontFamily=Verdana;fontSize=12;align=center;fillColor=#d5e8d4;strokeColor=#82b366;" parent="1" vertex="1">
          <mxGeometry x="-3340" y="1260" width="120" height="60" as="geometry" />
        </mxCell>
        <mxCell id="nb8dSJ33XXj_A_fWaeaZ-171" value="Mathematics&lt;br&gt;Physics" style="whiteSpace=wrap;html=1;rounded=0;shadow=1;labelBackgroundColor=none;strokeWidth=2;fontFamily=Verdana;fontSize=12;align=center;fillColor=#d5e8d4;strokeColor=#82b366;" parent="1" vertex="1">
          <mxGeometry x="-2900" y="1260" width="120" height="60" as="geometry" />
        </mxCell>
        <mxCell id="nb8dSJ33XXj_A_fWaeaZ-172" value="Elementary" style="rounded=0;html=1;labelBackgroundColor=none;startArrow=none;startFill=0;startSize=5;endArrow=none;endFill=0;endSize=5;jettySize=auto;orthogonalLoop=1;strokeWidth=1;fontFamily=Verdana;fontSize=12;exitX=0.5;exitY=0;exitDx=0;exitDy=0;entryX=0;entryY=0.25;entryDx=0;entryDy=0;" parent="1" source="nb8dSJ33XXj_A_fWaeaZ-170" target="62893188c0fa7362-20" edge="1">
          <mxGeometry x="0.1277" y="1" relative="1" as="geometry">
            <mxPoint x="-1" as="offset" />
            <mxPoint x="-3736" y="2115" as="sourcePoint" />
            <mxPoint x="-2870" y="1390" as="targetPoint" />
          </mxGeometry>
        </mxCell>
        <mxCell id="nb8dSJ33XXj_A_fWaeaZ-173" value="Middle School" style="rounded=0;html=1;labelBackgroundColor=none;startArrow=none;startFill=0;startSize=5;endArrow=none;endFill=0;endSize=5;jettySize=auto;orthogonalLoop=1;strokeWidth=1;fontFamily=Verdana;fontSize=12;exitX=0.5;exitY=0;exitDx=0;exitDy=0;entryX=0;entryY=0.5;entryDx=0;entryDy=0;" parent="1" source="nb8dSJ33XXj_A_fWaeaZ-169" target="62893188c0fa7362-20" edge="1">
          <mxGeometry x="0.1277" y="1" relative="1" as="geometry">
            <mxPoint x="-1" as="offset" />
            <mxPoint x="-4330" y="2385" as="sourcePoint" />
            <mxPoint x="-2848.16" y="1390.8400000000001" as="targetPoint" />
          </mxGeometry>
        </mxCell>
        <mxCell id="nb8dSJ33XXj_A_fWaeaZ-174" value="High School" style="rounded=0;html=1;labelBackgroundColor=none;startArrow=none;startFill=0;startSize=5;endArrow=none;endFill=0;endSize=5;jettySize=auto;orthogonalLoop=1;strokeWidth=1;fontFamily=Verdana;fontSize=12;exitX=0.5;exitY=0;exitDx=0;exitDy=0;entryX=0;entryY=0.75;entryDx=0;entryDy=0;" parent="1" source="nb8dSJ33XXj_A_fWaeaZ-168" target="62893188c0fa7362-20" edge="1">
          <mxGeometry x="0.1277" y="1" relative="1" as="geometry">
            <mxPoint x="-1" as="offset" />
            <mxPoint x="-4100" y="2385" as="sourcePoint" />
            <mxPoint x="-2826.6799999999994" y="1392.2799999999997" as="targetPoint" />
          </mxGeometry>
        </mxCell>
        <mxCell id="nb8dSJ33XXj_A_fWaeaZ-175" value="College" style="rounded=0;html=1;labelBackgroundColor=none;startArrow=none;startFill=0;startSize=5;endArrow=none;endFill=0;endSize=5;jettySize=auto;orthogonalLoop=1;strokeWidth=1;fontFamily=Verdana;fontSize=12;exitX=0.417;exitY=0;exitDx=0;exitDy=0;entryX=0;entryY=1;entryDx=0;entryDy=0;exitPerimeter=0;" parent="1" source="nb8dSJ33XXj_A_fWaeaZ-171" target="62893188c0fa7362-20" edge="1">
          <mxGeometry x="0.1277" y="1" relative="1" as="geometry">
            <mxPoint x="-1" as="offset" />
            <mxPoint x="-3890" y="2385" as="sourcePoint" />
            <mxPoint x="-2810" y="1390" as="targetPoint" />
          </mxGeometry>
        </mxCell>
        <mxCell id="nb8dSJ33XXj_A_fWaeaZ-180" value="Elementary" style="rounded=0;html=1;labelBackgroundColor=none;startArrow=none;startFill=0;startSize=5;endArrow=none;endFill=0;endSize=5;jettySize=auto;orthogonalLoop=1;strokeWidth=1;fontFamily=Verdana;fontSize=12;exitX=0.5;exitY=0;exitDx=0;exitDy=0;entryX=0;entryY=0.25;entryDx=0;entryDy=0;" parent="1" source="nb8dSJ33XXj_A_fWaeaZ-259" target="nb8dSJ33XXj_A_fWaeaZ-100" edge="1">
          <mxGeometry x="0.1277" y="1" relative="1" as="geometry">
            <mxPoint x="-1" as="offset" />
            <mxPoint x="-2330" y="2500" as="sourcePoint" />
            <mxPoint x="-1450" y="1010" as="targetPoint" />
          </mxGeometry>
        </mxCell>
        <mxCell id="nb8dSJ33XXj_A_fWaeaZ-181" value="Middle School" style="rounded=0;html=1;labelBackgroundColor=none;startArrow=none;startFill=0;startSize=5;endArrow=none;endFill=0;endSize=5;jettySize=auto;orthogonalLoop=1;strokeWidth=1;fontFamily=Verdana;fontSize=12;exitX=0.5;exitY=0;exitDx=0;exitDy=0;entryX=0;entryY=0.5;entryDx=0;entryDy=0;" parent="1" source="nb8dSJ33XXj_A_fWaeaZ-260" target="nb8dSJ33XXj_A_fWaeaZ-100" edge="1">
          <mxGeometry x="0.1277" y="1" relative="1" as="geometry">
            <mxPoint x="-1" as="offset" />
            <mxPoint x="-2190" y="2500" as="sourcePoint" />
            <mxPoint x="-1420" y="1010" as="targetPoint" />
          </mxGeometry>
        </mxCell>
        <mxCell id="nb8dSJ33XXj_A_fWaeaZ-182" value="High School" style="rounded=0;html=1;labelBackgroundColor=none;startArrow=none;startFill=0;startSize=5;endArrow=none;endFill=0;endSize=5;jettySize=auto;orthogonalLoop=1;strokeWidth=1;fontFamily=Verdana;fontSize=12;exitX=0.5;exitY=0;exitDx=0;exitDy=0;entryX=0;entryY=1;entryDx=0;entryDy=0;" parent="1" source="nb8dSJ33XXj_A_fWaeaZ-261" target="nb8dSJ33XXj_A_fWaeaZ-100" edge="1">
          <mxGeometry x="0.1277" y="1" relative="1" as="geometry">
            <mxPoint x="-1" as="offset" />
            <mxPoint x="-2040" y="2500" as="sourcePoint" />
            <mxPoint x="-1390" y="1010" as="targetPoint" />
          </mxGeometry>
        </mxCell>
        <mxCell id="nb8dSJ33XXj_A_fWaeaZ-183" value="College" style="rounded=0;html=1;labelBackgroundColor=none;startArrow=none;startFill=0;startSize=5;endArrow=none;endFill=0;endSize=5;jettySize=auto;orthogonalLoop=1;strokeWidth=1;fontFamily=Verdana;fontSize=12;exitX=0.5;exitY=0;exitDx=0;exitDy=0;entryX=0.111;entryY=0.99;entryDx=0;entryDy=0;entryPerimeter=0;" parent="1" source="nb8dSJ33XXj_A_fWaeaZ-262" target="nb8dSJ33XXj_A_fWaeaZ-100" edge="1">
          <mxGeometry x="0.1277" y="1" relative="1" as="geometry">
            <mxPoint x="-1" as="offset" />
            <mxPoint x="-1880" y="2500" as="sourcePoint" />
            <mxPoint x="-1360" y="1010" as="targetPoint" />
          </mxGeometry>
        </mxCell>
        <mxCell id="nb8dSJ33XXj_A_fWaeaZ-188" value="Elementary" style="rounded=0;html=1;labelBackgroundColor=none;startArrow=none;startFill=0;startSize=5;endArrow=none;endFill=0;endSize=5;jettySize=auto;orthogonalLoop=1;strokeWidth=1;fontFamily=Verdana;fontSize=12;exitX=0.5;exitY=0;exitDx=0;exitDy=0;entryX=0;entryY=0.5;entryDx=0;entryDy=0;" parent="1" source="nb8dSJ33XXj_A_fWaeaZ-274" target="nb8dSJ33XXj_A_fWaeaZ-11" edge="1">
          <mxGeometry x="0.1277" y="1" relative="1" as="geometry">
            <mxPoint x="-1" as="offset" />
            <mxPoint x="-1960" y="2984.999999999999" as="sourcePoint" />
            <mxPoint x="-1330" y="1525" as="targetPoint" />
          </mxGeometry>
        </mxCell>
        <mxCell id="nb8dSJ33XXj_A_fWaeaZ-189" value="Middle School" style="rounded=0;html=1;labelBackgroundColor=none;startArrow=none;startFill=0;startSize=5;endArrow=none;endFill=0;endSize=5;jettySize=auto;orthogonalLoop=1;strokeWidth=1;fontFamily=Verdana;fontSize=12;exitX=0.5;exitY=0;exitDx=0;exitDy=0;entryX=0;entryY=1;entryDx=0;entryDy=0;" parent="1" source="nb8dSJ33XXj_A_fWaeaZ-273" target="nb8dSJ33XXj_A_fWaeaZ-11" edge="1">
          <mxGeometry x="0.1277" y="1" relative="1" as="geometry">
            <mxPoint x="-1" as="offset" />
            <mxPoint x="-1829.6000000000004" y="2986.5599999999986" as="sourcePoint" />
            <mxPoint x="-1300" y="1530" as="targetPoint" />
          </mxGeometry>
        </mxCell>
        <mxCell id="nb8dSJ33XXj_A_fWaeaZ-190" value="High School" style="rounded=0;html=1;labelBackgroundColor=none;startArrow=none;startFill=0;startSize=5;endArrow=none;endFill=0;endSize=5;jettySize=auto;orthogonalLoop=1;strokeWidth=1;fontFamily=Verdana;fontSize=12;exitX=0.579;exitY=-0.044;exitDx=0;exitDy=0;entryX=0.25;entryY=1;entryDx=0;entryDy=0;exitPerimeter=0;" parent="1" source="nb8dSJ33XXj_A_fWaeaZ-272" target="nb8dSJ33XXj_A_fWaeaZ-11" edge="1">
          <mxGeometry x="0.1277" y="1" relative="1" as="geometry">
            <mxPoint x="-1" as="offset" />
            <mxPoint x="-1670" y="2984.999999999999" as="sourcePoint" />
            <mxPoint x="-1270" y="1525" as="targetPoint" />
          </mxGeometry>
        </mxCell>
        <mxCell id="nb8dSJ33XXj_A_fWaeaZ-191" value="College" style="rounded=0;html=1;labelBackgroundColor=none;startArrow=none;startFill=0;startSize=5;endArrow=none;endFill=0;endSize=5;jettySize=auto;orthogonalLoop=1;strokeWidth=1;fontFamily=Verdana;fontSize=12;exitX=0.5;exitY=0;exitDx=0;exitDy=0;entryX=0.432;entryY=1.038;entryDx=0;entryDy=0;entryPerimeter=0;" parent="1" source="nb8dSJ33XXj_A_fWaeaZ-263" target="nb8dSJ33XXj_A_fWaeaZ-11" edge="1">
          <mxGeometry x="0.1277" y="1" relative="1" as="geometry">
            <mxPoint x="-1" as="offset" />
            <mxPoint x="-1510" y="2984.999999999999" as="sourcePoint" />
            <mxPoint x="-1240" y="1525" as="targetPoint" />
          </mxGeometry>
        </mxCell>
        <mxCell id="nb8dSJ33XXj_A_fWaeaZ-195" value="Physics&lt;br style=&quot;border-color: var(--border-color);&quot;&gt;Chemistry&lt;br style=&quot;border-color: var(--border-color);&quot;&gt;Biology&lt;br style=&quot;border-color: var(--border-color);&quot;&gt;Biochemistry" style="whiteSpace=wrap;html=1;rounded=0;shadow=1;labelBackgroundColor=none;strokeWidth=2;fontFamily=Verdana;fontSize=12;align=center;fillColor=#d5e8d4;strokeColor=#82b366;" parent="1" vertex="1">
          <mxGeometry x="-5" y="1275" width="120" height="60" as="geometry" />
        </mxCell>
        <mxCell id="nb8dSJ33XXj_A_fWaeaZ-196" value="Elementary" style="rounded=0;html=1;labelBackgroundColor=none;startArrow=none;startFill=0;startSize=5;endArrow=none;endFill=0;endSize=5;jettySize=auto;orthogonalLoop=1;strokeWidth=1;fontFamily=Verdana;fontSize=12;exitX=0.5;exitY=0;exitDx=0;exitDy=0;entryX=0.123;entryY=1.014;entryDx=0;entryDy=0;entryPerimeter=0;" parent="1" source="nb8dSJ33XXj_A_fWaeaZ-277" target="nb8dSJ33XXj_A_fWaeaZ-112" edge="1">
          <mxGeometry x="0.1277" y="1" relative="1" as="geometry">
            <mxPoint x="-1" as="offset" />
            <mxPoint x="-1620" y="3949.999999999999" as="sourcePoint" />
            <mxPoint x="-540" y="2810" as="targetPoint" />
          </mxGeometry>
        </mxCell>
        <mxCell id="nb8dSJ33XXj_A_fWaeaZ-197" value="Middle School" style="rounded=0;html=1;labelBackgroundColor=none;startArrow=none;startFill=0;startSize=5;endArrow=none;endFill=0;endSize=5;jettySize=auto;orthogonalLoop=1;strokeWidth=1;fontFamily=Verdana;fontSize=12;entryX=0.373;entryY=1.038;entryDx=0;entryDy=0;entryPerimeter=0;exitX=0.5;exitY=0;exitDx=0;exitDy=0;" parent="1" source="nb8dSJ33XXj_A_fWaeaZ-276" target="nb8dSJ33XXj_A_fWaeaZ-112" edge="1">
          <mxGeometry x="0.1277" y="1" relative="1" as="geometry">
            <mxPoint x="-1" as="offset" />
            <mxPoint x="-1480" y="3949.999999999999" as="sourcePoint" />
            <mxPoint x="-510" y="2810" as="targetPoint" />
          </mxGeometry>
        </mxCell>
        <mxCell id="nb8dSJ33XXj_A_fWaeaZ-198" value="High School" style="rounded=0;html=1;labelBackgroundColor=none;startArrow=none;startFill=0;startSize=5;endArrow=none;endFill=0;endSize=5;jettySize=auto;orthogonalLoop=1;strokeWidth=1;fontFamily=Verdana;fontSize=12;exitX=0.5;exitY=0;exitDx=0;exitDy=0;entryX=0.75;entryY=1;entryDx=0;entryDy=0;" parent="1" source="nb8dSJ33XXj_A_fWaeaZ-275" target="nb8dSJ33XXj_A_fWaeaZ-112" edge="1">
          <mxGeometry x="0.1277" y="1" relative="1" as="geometry">
            <mxPoint x="-1" as="offset" />
            <mxPoint x="-1340" y="3949.999999999999" as="sourcePoint" />
            <mxPoint x="-480" y="2810" as="targetPoint" />
          </mxGeometry>
        </mxCell>
        <mxCell id="nb8dSJ33XXj_A_fWaeaZ-199" value="College" style="rounded=0;html=1;labelBackgroundColor=none;startArrow=none;startFill=0;startSize=5;endArrow=none;endFill=0;endSize=5;jettySize=auto;orthogonalLoop=1;strokeWidth=1;fontFamily=Verdana;fontSize=12;exitX=0.5;exitY=0;exitDx=0;exitDy=0;entryX=1;entryY=1;entryDx=0;entryDy=0;" parent="1" source="nb8dSJ33XXj_A_fWaeaZ-195" target="nb8dSJ33XXj_A_fWaeaZ-112" edge="1">
          <mxGeometry x="0.1277" y="1" relative="1" as="geometry">
            <mxPoint x="-1" as="offset" />
            <mxPoint x="-560" y="2985" as="sourcePoint" />
            <mxPoint x="-480" y="2810" as="targetPoint" />
          </mxGeometry>
        </mxCell>
        <mxCell id="nb8dSJ33XXj_A_fWaeaZ-203" value="English&lt;br&gt;English Education" style="whiteSpace=wrap;html=1;rounded=0;shadow=1;labelBackgroundColor=none;strokeWidth=2;fontFamily=Verdana;fontSize=12;align=center;fillColor=#d5e8d4;strokeColor=#82b366;" parent="1" vertex="1">
          <mxGeometry x="45" y="2030" width="120" height="60" as="geometry" />
        </mxCell>
        <mxCell id="nb8dSJ33XXj_A_fWaeaZ-204" value="Elementary" style="rounded=0;html=1;labelBackgroundColor=none;startArrow=none;startFill=0;startSize=5;endArrow=none;endFill=0;endSize=5;jettySize=auto;orthogonalLoop=1;strokeWidth=1;fontFamily=Verdana;fontSize=12;exitX=0.5;exitY=0;exitDx=0;exitDy=0;entryX=0.17;entryY=1.038;entryDx=0;entryDy=0;entryPerimeter=0;" parent="1" source="nb8dSJ33XXj_A_fWaeaZ-280" target="nb8dSJ33XXj_A_fWaeaZ-82" edge="1">
          <mxGeometry x="0.1277" y="1" relative="1" as="geometry">
            <mxPoint x="-1" as="offset" />
            <mxPoint x="-315" y="3129.999999999999" as="sourcePoint" />
            <mxPoint x="680" y="2320" as="targetPoint" />
          </mxGeometry>
        </mxCell>
        <mxCell id="nb8dSJ33XXj_A_fWaeaZ-205" value="Middle School" style="rounded=0;html=1;labelBackgroundColor=none;startArrow=none;startFill=0;startSize=5;endArrow=none;endFill=0;endSize=5;jettySize=auto;orthogonalLoop=1;strokeWidth=1;fontFamily=Verdana;fontSize=12;entryX=0.349;entryY=1.038;entryDx=0;entryDy=0;entryPerimeter=0;exitX=0.5;exitY=0;exitDx=0;exitDy=0;" parent="1" source="nb8dSJ33XXj_A_fWaeaZ-279" target="nb8dSJ33XXj_A_fWaeaZ-82" edge="1">
          <mxGeometry x="0.1277" y="1" relative="1" as="geometry">
            <mxPoint x="-1" as="offset" />
            <mxPoint x="-155" y="3129.999999999999" as="sourcePoint" />
            <mxPoint x="710" y="2320" as="targetPoint" />
          </mxGeometry>
        </mxCell>
        <mxCell id="nb8dSJ33XXj_A_fWaeaZ-206" value="High School" style="rounded=0;html=1;labelBackgroundColor=none;startArrow=none;startFill=0;startSize=5;endArrow=none;endFill=0;endSize=5;jettySize=auto;orthogonalLoop=1;strokeWidth=1;fontFamily=Verdana;fontSize=12;exitX=0.5;exitY=0;exitDx=0;exitDy=0;entryX=0.587;entryY=0.99;entryDx=0;entryDy=0;entryPerimeter=0;" parent="1" source="nb8dSJ33XXj_A_fWaeaZ-278" target="nb8dSJ33XXj_A_fWaeaZ-82" edge="1">
          <mxGeometry x="0.1277" y="1" relative="1" as="geometry">
            <mxPoint x="-1" as="offset" />
            <mxPoint x="-5" y="3129.999999999999" as="sourcePoint" />
            <mxPoint x="740" y="2320" as="targetPoint" />
          </mxGeometry>
        </mxCell>
        <mxCell id="nb8dSJ33XXj_A_fWaeaZ-207" value="College" style="rounded=0;html=1;labelBackgroundColor=none;startArrow=none;startFill=0;startSize=5;endArrow=none;endFill=0;endSize=5;jettySize=auto;orthogonalLoop=1;strokeWidth=1;fontFamily=Verdana;fontSize=12;exitX=0.5;exitY=0;exitDx=0;exitDy=0;entryX=0.837;entryY=1.062;entryDx=0;entryDy=0;entryPerimeter=0;" parent="1" source="nb8dSJ33XXj_A_fWaeaZ-203" target="nb8dSJ33XXj_A_fWaeaZ-82" edge="1">
          <mxGeometry x="0.1277" y="1" relative="1" as="geometry">
            <mxPoint x="-1" as="offset" />
            <mxPoint x="660" y="2495" as="sourcePoint" />
            <mxPoint x="740" y="2320" as="targetPoint" />
          </mxGeometry>
        </mxCell>
        <mxCell id="nb8dSJ33XXj_A_fWaeaZ-212" value="Elementary" style="rounded=0;html=1;labelBackgroundColor=none;startArrow=none;startFill=0;startSize=5;endArrow=none;endFill=0;endSize=5;jettySize=auto;orthogonalLoop=1;strokeWidth=1;fontFamily=Verdana;fontSize=12;exitX=0.5;exitY=0;exitDx=0;exitDy=0;entryX=0.25;entryY=1;entryDx=0;entryDy=0;" parent="1" source="nb8dSJ33XXj_A_fWaeaZ-295" target="nb8dSJ33XXj_A_fWaeaZ-124" edge="1">
          <mxGeometry x="0.1277" y="1" relative="1" as="geometry">
            <mxPoint x="-1" as="offset" />
            <mxPoint x="535" y="2994.999999999999" as="sourcePoint" />
            <mxPoint x="1505" y="2185" as="targetPoint" />
          </mxGeometry>
        </mxCell>
        <mxCell id="nb8dSJ33XXj_A_fWaeaZ-213" value="Middle School" style="rounded=0;html=1;labelBackgroundColor=none;startArrow=none;startFill=0;startSize=5;endArrow=none;endFill=0;endSize=5;jettySize=auto;orthogonalLoop=1;strokeWidth=1;fontFamily=Verdana;fontSize=12;exitX=0.5;exitY=0;exitDx=0;exitDy=0;entryX=0.5;entryY=1;entryDx=0;entryDy=0;" parent="1" source="nb8dSJ33XXj_A_fWaeaZ-294" target="nb8dSJ33XXj_A_fWaeaZ-124" edge="1">
          <mxGeometry x="0.1277" y="1" relative="1" as="geometry">
            <mxPoint x="-1" as="offset" />
            <mxPoint x="685" y="2994.999999999999" as="sourcePoint" />
            <mxPoint x="1535" y="2185" as="targetPoint" />
          </mxGeometry>
        </mxCell>
        <mxCell id="nb8dSJ33XXj_A_fWaeaZ-214" value="High School" style="rounded=0;html=1;labelBackgroundColor=none;startArrow=none;startFill=0;startSize=5;endArrow=none;endFill=0;endSize=5;jettySize=auto;orthogonalLoop=1;strokeWidth=1;fontFamily=Verdana;fontSize=12;exitX=0.5;exitY=0;exitDx=0;exitDy=0;entryX=0.646;entryY=1.017;entryDx=0;entryDy=0;entryPerimeter=0;" parent="1" source="nb8dSJ33XXj_A_fWaeaZ-293" target="nb8dSJ33XXj_A_fWaeaZ-124" edge="1">
          <mxGeometry x="0.1277" y="1" relative="1" as="geometry">
            <mxPoint x="-1" as="offset" />
            <mxPoint x="825" y="2994.999999999999" as="sourcePoint" />
            <mxPoint x="1565" y="2185" as="targetPoint" />
          </mxGeometry>
        </mxCell>
        <mxCell id="nb8dSJ33XXj_A_fWaeaZ-215" value="College" style="rounded=0;html=1;labelBackgroundColor=none;startArrow=none;startFill=0;startSize=5;endArrow=none;endFill=0;endSize=5;jettySize=auto;orthogonalLoop=1;strokeWidth=1;fontFamily=Verdana;fontSize=12;exitX=0.5;exitY=0;exitDx=0;exitDy=0;entryX=0.896;entryY=1.014;entryDx=0;entryDy=0;entryPerimeter=0;" parent="1" source="nb8dSJ33XXj_A_fWaeaZ-292" target="nb8dSJ33XXj_A_fWaeaZ-124" edge="1">
          <mxGeometry x="0.1277" y="1" relative="1" as="geometry">
            <mxPoint x="-1" as="offset" />
            <mxPoint x="935" y="2994.999999999999" as="sourcePoint" />
            <mxPoint x="1565" y="2185" as="targetPoint" />
          </mxGeometry>
        </mxCell>
        <mxCell id="nb8dSJ33XXj_A_fWaeaZ-220" value="Elementary" style="rounded=0;html=1;labelBackgroundColor=none;startArrow=none;startFill=0;startSize=5;endArrow=none;endFill=0;endSize=5;jettySize=auto;orthogonalLoop=1;strokeWidth=1;fontFamily=Verdana;fontSize=12;exitX=0.5;exitY=0;exitDx=0;exitDy=0;entryX=0.25;entryY=1;entryDx=0;entryDy=0;" parent="1" source="nb8dSJ33XXj_A_fWaeaZ-306" target="nb8dSJ33XXj_A_fWaeaZ-47" edge="1">
          <mxGeometry x="0.1277" y="1" relative="1" as="geometry">
            <mxPoint x="-1" as="offset" />
            <mxPoint x="1180" y="3929.999999999999" as="sourcePoint" />
            <mxPoint x="1470" y="2550" as="targetPoint" />
          </mxGeometry>
        </mxCell>
        <mxCell id="nb8dSJ33XXj_A_fWaeaZ-221" value="Middle School" style="rounded=0;html=1;labelBackgroundColor=none;startArrow=none;startFill=0;startSize=5;endArrow=none;endFill=0;endSize=5;jettySize=auto;orthogonalLoop=1;strokeWidth=1;fontFamily=Verdana;fontSize=12;exitX=0.5;exitY=0;exitDx=0;exitDy=0;entryX=0.5;entryY=1;entryDx=0;entryDy=0;" parent="1" source="nb8dSJ33XXj_A_fWaeaZ-305" target="nb8dSJ33XXj_A_fWaeaZ-47" edge="1">
          <mxGeometry x="0.1277" y="1" relative="1" as="geometry">
            <mxPoint x="-1" as="offset" />
            <mxPoint x="1320" y="3929.999999999999" as="sourcePoint" />
            <mxPoint x="1500" y="2550" as="targetPoint" />
          </mxGeometry>
        </mxCell>
        <mxCell id="nb8dSJ33XXj_A_fWaeaZ-222" value="High School" style="rounded=0;html=1;labelBackgroundColor=none;startArrow=none;startFill=0;startSize=5;endArrow=none;endFill=0;endSize=5;jettySize=auto;orthogonalLoop=1;strokeWidth=1;fontFamily=Verdana;fontSize=12;exitX=0.5;exitY=0;exitDx=0;exitDy=0;entryX=0.682;entryY=0.99;entryDx=0;entryDy=0;entryPerimeter=0;" parent="1" source="nb8dSJ33XXj_A_fWaeaZ-304" target="nb8dSJ33XXj_A_fWaeaZ-47" edge="1">
          <mxGeometry x="0.1277" y="1" relative="1" as="geometry">
            <mxPoint x="-1" as="offset" />
            <mxPoint x="1444.7600000000002" y="3933" as="sourcePoint" />
            <mxPoint x="1513" y="2550" as="targetPoint" />
          </mxGeometry>
        </mxCell>
        <mxCell id="nb8dSJ33XXj_A_fWaeaZ-223" value="College" style="rounded=0;html=1;labelBackgroundColor=none;startArrow=none;startFill=0;startSize=5;endArrow=none;endFill=0;endSize=5;jettySize=auto;orthogonalLoop=1;strokeWidth=1;fontFamily=Verdana;fontSize=12;exitX=0.5;exitY=0;exitDx=0;exitDy=0;entryX=0.885;entryY=1.038;entryDx=0;entryDy=0;entryPerimeter=0;" parent="1" source="nb8dSJ33XXj_A_fWaeaZ-303" target="nb8dSJ33XXj_A_fWaeaZ-47" edge="1">
          <mxGeometry x="0.1277" y="1" relative="1" as="geometry">
            <mxPoint x="-1" as="offset" />
            <mxPoint x="1600.0000000000018" y="3929.999999999999" as="sourcePoint" />
            <mxPoint x="1548" y="2551" as="targetPoint" />
          </mxGeometry>
        </mxCell>
        <mxCell id="nb8dSJ33XXj_A_fWaeaZ-228" value="Elementary" style="rounded=0;html=1;labelBackgroundColor=none;startArrow=none;startFill=0;startSize=5;endArrow=none;endFill=0;endSize=5;jettySize=auto;orthogonalLoop=1;strokeWidth=1;fontFamily=Verdana;fontSize=12;exitX=0.5;exitY=0;exitDx=0;exitDy=0;entryX=0.25;entryY=1;entryDx=0;entryDy=0;" parent="1" source="nb8dSJ33XXj_A_fWaeaZ-316" target="nb8dSJ33XXj_A_fWaeaZ-136" edge="1">
          <mxGeometry x="0.1277" y="1" relative="1" as="geometry">
            <mxPoint x="-1" as="offset" />
            <mxPoint x="1940" y="3929.999999999999" as="sourcePoint" />
            <mxPoint x="1960" y="2375" as="targetPoint" />
          </mxGeometry>
        </mxCell>
        <mxCell id="nb8dSJ33XXj_A_fWaeaZ-229" value="Middle School" style="rounded=0;html=1;labelBackgroundColor=none;startArrow=none;startFill=0;startSize=5;endArrow=none;endFill=0;endSize=5;jettySize=auto;orthogonalLoop=1;strokeWidth=1;fontFamily=Verdana;fontSize=12;exitX=0.5;exitY=0;exitDx=0;exitDy=0;entryX=0.5;entryY=1;entryDx=0;entryDy=0;" parent="1" source="nb8dSJ33XXj_A_fWaeaZ-315" target="nb8dSJ33XXj_A_fWaeaZ-136" edge="1">
          <mxGeometry x="0.1277" y="1" relative="1" as="geometry">
            <mxPoint x="-1" as="offset" />
            <mxPoint x="2080" y="3929.999999999999" as="sourcePoint" />
            <mxPoint x="1990" y="2375" as="targetPoint" />
          </mxGeometry>
        </mxCell>
        <mxCell id="nb8dSJ33XXj_A_fWaeaZ-230" value="High School" style="rounded=0;html=1;labelBackgroundColor=none;startArrow=none;startFill=0;startSize=5;endArrow=none;endFill=0;endSize=5;jettySize=auto;orthogonalLoop=1;strokeWidth=1;fontFamily=Verdana;fontSize=12;exitX=0.432;exitY=0.029;exitDx=0;exitDy=0;entryX=0.75;entryY=1;entryDx=0;entryDy=0;exitPerimeter=0;" parent="1" source="nb8dSJ33XXj_A_fWaeaZ-314" target="nb8dSJ33XXj_A_fWaeaZ-136" edge="1">
          <mxGeometry x="0.1277" y="1" relative="1" as="geometry">
            <mxPoint x="-1" as="offset" />
            <mxPoint x="2204.76" y="3933" as="sourcePoint" />
            <mxPoint x="2012" y="2374" as="targetPoint" />
          </mxGeometry>
        </mxCell>
        <mxCell id="nb8dSJ33XXj_A_fWaeaZ-231" value="College" style="rounded=0;html=1;labelBackgroundColor=none;startArrow=none;startFill=0;startSize=5;endArrow=none;endFill=0;endSize=5;jettySize=auto;orthogonalLoop=1;strokeWidth=1;fontFamily=Verdana;fontSize=12;exitX=0.5;exitY=0;exitDx=0;exitDy=0;entryX=1;entryY=1;entryDx=0;entryDy=0;" parent="1" source="nb8dSJ33XXj_A_fWaeaZ-313" target="nb8dSJ33XXj_A_fWaeaZ-136" edge="1">
          <mxGeometry x="0.1277" y="1" relative="1" as="geometry">
            <mxPoint x="-1" as="offset" />
            <mxPoint x="2360" y="3929.999999999999" as="sourcePoint" />
            <mxPoint x="2036" y="2377" as="targetPoint" />
          </mxGeometry>
        </mxCell>
        <mxCell id="nb8dSJ33XXj_A_fWaeaZ-232" value="Secondary Education&lt;br&gt;Music Education" style="whiteSpace=wrap;html=1;rounded=0;shadow=1;labelBackgroundColor=none;strokeWidth=2;fontFamily=Verdana;fontSize=12;align=center;fillColor=#d5e8d4;strokeColor=#82b366;" parent="1" vertex="1">
          <mxGeometry x="2750" y="1550" width="120" height="60" as="geometry" />
        </mxCell>
        <mxCell id="nb8dSJ33XXj_A_fWaeaZ-233" value="Middle Grades Education&lt;br&gt;Music Education" style="whiteSpace=wrap;html=1;rounded=0;shadow=1;labelBackgroundColor=none;strokeWidth=2;fontFamily=Verdana;fontSize=12;align=center;fillColor=#d5e8d4;strokeColor=#82b366;" parent="1" vertex="1">
          <mxGeometry x="2610" y="1550" width="130" height="60" as="geometry" />
        </mxCell>
        <mxCell id="nb8dSJ33XXj_A_fWaeaZ-234" value="Elementary Education&lt;br&gt;Music Education" style="whiteSpace=wrap;html=1;rounded=0;shadow=1;labelBackgroundColor=none;strokeWidth=2;fontFamily=Verdana;fontSize=12;align=center;fillColor=#d5e8d4;strokeColor=#82b366;" parent="1" vertex="1">
          <mxGeometry x="2470" y="1550" width="120" height="60" as="geometry" />
        </mxCell>
        <mxCell id="nb8dSJ33XXj_A_fWaeaZ-235" value="Art&lt;br&gt;Music&lt;br&gt;Music Education" style="whiteSpace=wrap;html=1;rounded=0;shadow=1;labelBackgroundColor=none;strokeWidth=2;fontFamily=Verdana;fontSize=12;align=center;fillColor=#d5e8d4;strokeColor=#82b366;" parent="1" vertex="1">
          <mxGeometry x="2890" y="1550" width="120" height="60" as="geometry" />
        </mxCell>
        <mxCell id="nb8dSJ33XXj_A_fWaeaZ-236" value="Elementary" style="rounded=0;html=1;labelBackgroundColor=none;startArrow=none;startFill=0;startSize=5;endArrow=none;endFill=0;endSize=5;jettySize=auto;orthogonalLoop=1;strokeWidth=1;fontFamily=Verdana;fontSize=12;exitX=0.5;exitY=0;exitDx=0;exitDy=0;entryX=0.25;entryY=1;entryDx=0;entryDy=0;" parent="1" source="nb8dSJ33XXj_A_fWaeaZ-234" edge="1">
          <mxGeometry x="0.1277" y="1" relative="1" as="geometry">
            <mxPoint x="-1" as="offset" />
            <mxPoint x="3634" y="2130" as="sourcePoint" />
            <mxPoint x="2640" y="1305" as="targetPoint" />
          </mxGeometry>
        </mxCell>
        <mxCell id="nb8dSJ33XXj_A_fWaeaZ-237" value="Middle School" style="rounded=0;html=1;labelBackgroundColor=none;startArrow=none;startFill=0;startSize=5;endArrow=none;endFill=0;endSize=5;jettySize=auto;orthogonalLoop=1;strokeWidth=1;fontFamily=Verdana;fontSize=12;exitX=0.5;exitY=0;exitDx=0;exitDy=0;entryX=0.5;entryY=1;entryDx=0;entryDy=0;" parent="1" source="nb8dSJ33XXj_A_fWaeaZ-233" edge="1">
          <mxGeometry x="0.1277" y="1" relative="1" as="geometry">
            <mxPoint x="-1" as="offset" />
            <mxPoint x="3040" y="2400" as="sourcePoint" />
            <mxPoint x="2670" y="1305" as="targetPoint" />
          </mxGeometry>
        </mxCell>
        <mxCell id="nb8dSJ33XXj_A_fWaeaZ-238" value="High School" style="rounded=0;html=1;labelBackgroundColor=none;startArrow=none;startFill=0;startSize=5;endArrow=none;endFill=0;endSize=5;jettySize=auto;orthogonalLoop=1;strokeWidth=1;fontFamily=Verdana;fontSize=12;exitX=0.373;exitY=0.05;exitDx=0;exitDy=0;entryX=0.682;entryY=0.99;entryDx=0;entryDy=0;entryPerimeter=0;exitPerimeter=0;" parent="1" source="nb8dSJ33XXj_A_fWaeaZ-232" edge="1">
          <mxGeometry x="0.1277" y="1" relative="1" as="geometry">
            <mxPoint x="-1" as="offset" />
            <mxPoint x="3270" y="2400" as="sourcePoint" />
            <mxPoint x="2692" y="1304" as="targetPoint" />
          </mxGeometry>
        </mxCell>
        <mxCell id="nb8dSJ33XXj_A_fWaeaZ-239" value="College" style="rounded=0;html=1;labelBackgroundColor=none;startArrow=none;startFill=0;startSize=5;endArrow=none;endFill=0;endSize=5;jettySize=auto;orthogonalLoop=1;strokeWidth=1;fontFamily=Verdana;fontSize=12;exitX=0.5;exitY=0;exitDx=0;exitDy=0;entryX=0.885;entryY=1.038;entryDx=0;entryDy=0;entryPerimeter=0;" parent="1" source="nb8dSJ33XXj_A_fWaeaZ-235" edge="1">
          <mxGeometry x="0.1277" y="1" relative="1" as="geometry">
            <mxPoint x="-1" as="offset" />
            <mxPoint x="3480" y="2400" as="sourcePoint" />
            <mxPoint x="2716" y="1307" as="targetPoint" />
          </mxGeometry>
        </mxCell>
        <mxCell id="nb8dSJ33XXj_A_fWaeaZ-244" value="Elementary" style="rounded=0;html=1;labelBackgroundColor=none;startArrow=none;startFill=0;startSize=5;endArrow=none;endFill=0;endSize=5;jettySize=auto;orthogonalLoop=1;strokeWidth=1;fontFamily=Verdana;fontSize=12;exitX=0.5;exitY=0;exitDx=0;exitDy=0;entryX=0.25;entryY=1;entryDx=0;entryDy=0;" parent="1" source="nb8dSJ33XXj_A_fWaeaZ-319" target="nb8dSJ33XXj_A_fWaeaZ-160" edge="1">
          <mxGeometry x="0.1277" y="1" relative="1" as="geometry">
            <mxPoint x="-1" as="offset" />
            <mxPoint x="3410" y="3930" as="sourcePoint" />
            <mxPoint x="3410" y="2365" as="targetPoint" />
          </mxGeometry>
        </mxCell>
        <mxCell id="nb8dSJ33XXj_A_fWaeaZ-245" value="Middle School" style="rounded=0;html=1;labelBackgroundColor=none;startArrow=none;startFill=0;startSize=5;endArrow=none;endFill=0;endSize=5;jettySize=auto;orthogonalLoop=1;strokeWidth=1;fontFamily=Verdana;fontSize=12;exitX=0.562;exitY=-0.048;exitDx=0;exitDy=0;entryX=0.358;entryY=0.967;entryDx=0;entryDy=0;exitPerimeter=0;entryPerimeter=0;" parent="1" source="nb8dSJ33XXj_A_fWaeaZ-318" target="nb8dSJ33XXj_A_fWaeaZ-160" edge="1">
          <mxGeometry x="0.1277" y="1" relative="1" as="geometry">
            <mxPoint x="-1" as="offset" />
            <mxPoint x="3550" y="3930" as="sourcePoint" />
            <mxPoint x="3440" y="2365" as="targetPoint" />
          </mxGeometry>
        </mxCell>
        <mxCell id="nb8dSJ33XXj_A_fWaeaZ-246" value="High School" style="rounded=0;html=1;labelBackgroundColor=none;startArrow=none;startFill=0;startSize=5;endArrow=none;endFill=0;endSize=5;jettySize=auto;orthogonalLoop=1;strokeWidth=1;fontFamily=Verdana;fontSize=12;exitX=0.469;exitY=-0.059;exitDx=0;exitDy=0;exitPerimeter=0;" parent="1" source="nb8dSJ33XXj_A_fWaeaZ-317" target="nb8dSJ33XXj_A_fWaeaZ-160" edge="1">
          <mxGeometry x="0.1277" y="1" relative="1" as="geometry">
            <mxPoint x="-1" as="offset" />
            <mxPoint x="3674.76" y="3932.999999999999" as="sourcePoint" />
            <mxPoint x="3462" y="2364" as="targetPoint" />
          </mxGeometry>
        </mxCell>
        <mxCell id="nb8dSJ33XXj_A_fWaeaZ-247" value="College" style="rounded=0;html=1;labelBackgroundColor=none;startArrow=none;startFill=0;startSize=5;endArrow=none;endFill=0;endSize=5;jettySize=auto;orthogonalLoop=1;strokeWidth=1;fontFamily=Verdana;fontSize=12;exitX=0.5;exitY=0;exitDx=0;exitDy=0;entryX=1;entryY=0.5;entryDx=0;entryDy=0;" parent="1" source="nb8dSJ33XXj_A_fWaeaZ-320" target="nb8dSJ33XXj_A_fWaeaZ-160" edge="1">
          <mxGeometry x="0.1277" y="1" relative="1" as="geometry">
            <mxPoint x="-1" as="offset" />
            <mxPoint x="3830" y="3930" as="sourcePoint" />
            <mxPoint x="3486" y="2367" as="targetPoint" />
          </mxGeometry>
        </mxCell>
        <mxCell id="nb8dSJ33XXj_A_fWaeaZ-258" value="Mathematics&lt;br&gt;Finance&lt;br&gt;Mechanical Engineering&lt;br&gt;Computer Engineering" style="whiteSpace=wrap;html=1;rounded=0;shadow=1;labelBackgroundColor=none;strokeWidth=2;fontFamily=Verdana;fontSize=12;align=center;fillColor=#d5e8d4;strokeColor=#82b366;" parent="1" vertex="1">
          <mxGeometry x="-2690" y="1220" width="150" height="120" as="geometry" />
        </mxCell>
        <mxCell id="nb8dSJ33XXj_A_fWaeaZ-259" value="Elementary Education" style="whiteSpace=wrap;html=1;rounded=0;shadow=1;labelBackgroundColor=none;strokeWidth=2;fontFamily=Verdana;fontSize=12;align=center;fillColor=#d5e8d4;strokeColor=#82b366;" parent="1" vertex="1">
          <mxGeometry x="-1790" y="1150" width="120" height="60" as="geometry" />
        </mxCell>
        <mxCell id="nb8dSJ33XXj_A_fWaeaZ-260" value="Midle Grades Education" style="whiteSpace=wrap;html=1;rounded=0;shadow=1;labelBackgroundColor=none;strokeWidth=2;fontFamily=Verdana;fontSize=12;align=center;fillColor=#d5e8d4;strokeColor=#82b366;" parent="1" vertex="1">
          <mxGeometry x="-1640" y="1150" width="120" height="60" as="geometry" />
        </mxCell>
        <mxCell id="nb8dSJ33XXj_A_fWaeaZ-261" value="Secondary Education" style="whiteSpace=wrap;html=1;rounded=0;shadow=1;labelBackgroundColor=none;strokeWidth=2;fontFamily=Verdana;fontSize=12;align=center;fillColor=#d5e8d4;strokeColor=#82b366;" parent="1" vertex="1">
          <mxGeometry x="-1490" y="1150" width="120" height="60" as="geometry" />
        </mxCell>
        <mxCell id="nb8dSJ33XXj_A_fWaeaZ-262" value="Physics&lt;br style=&quot;border-color: var(--border-color);&quot;&gt;Mathematics" style="whiteSpace=wrap;html=1;rounded=0;shadow=1;labelBackgroundColor=none;strokeWidth=2;fontFamily=Verdana;fontSize=12;align=center;fillColor=#d5e8d4;strokeColor=#82b366;" parent="1" vertex="1">
          <mxGeometry x="-1340" y="1130" width="120" height="80" as="geometry" />
        </mxCell>
        <mxCell id="nb8dSJ33XXj_A_fWaeaZ-263" value="Physics&lt;br style=&quot;border-color: var(--border-color);&quot;&gt;Chemistry&lt;br style=&quot;border-color: var(--border-color);&quot;&gt;Biology&lt;br style=&quot;border-color: var(--border-color);&quot;&gt;Biochemistry" style="whiteSpace=wrap;html=1;rounded=0;shadow=1;labelBackgroundColor=none;strokeWidth=2;fontFamily=Verdana;fontSize=12;align=center;fillColor=#d5e8d4;strokeColor=#82b366;" parent="1" vertex="1">
          <mxGeometry x="-1150" y="1665" width="120" height="80" as="geometry" />
        </mxCell>
        <mxCell id="nb8dSJ33XXj_A_fWaeaZ-264" value="Mathematics&lt;br style=&quot;border-color: var(--border-color);&quot;&gt;Physics" style="whiteSpace=wrap;html=1;rounded=0;shadow=1;labelBackgroundColor=none;strokeWidth=2;fontFamily=Verdana;fontSize=12;align=center;fillColor=#d5e8d4;strokeColor=#82b366;" parent="1" vertex="1">
          <mxGeometry x="-2280" y="1550" width="120" height="110" as="geometry" />
        </mxCell>
        <mxCell id="nb8dSJ33XXj_A_fWaeaZ-267" value="No" style="rounded=0;html=1;labelBackgroundColor=none;startArrow=none;startFill=0;startSize=5;endArrow=none;endFill=0;endSize=5;jettySize=auto;orthogonalLoop=1;strokeWidth=1;fontFamily=Verdana;fontSize=12;entryX=0.5;entryY=0;entryDx=0;entryDy=0;exitX=0.587;exitY=1.029;exitDx=0;exitDy=0;exitPerimeter=0;" parent="1" source="62893188c0fa7362-22" target="nb8dSJ33XXj_A_fWaeaZ-264" edge="1">
          <mxGeometry x="0.1373" y="16" relative="1" as="geometry">
            <mxPoint as="offset" />
            <mxPoint x="-1061" y="170" as="sourcePoint" />
            <mxPoint x="-2460" y="1800" as="targetPoint" />
          </mxGeometry>
        </mxCell>
        <mxCell id="nb8dSJ33XXj_A_fWaeaZ-270" value="" style="rounded=0;html=1;labelBackgroundColor=none;startArrow=none;startFill=0;startSize=5;endArrow=none;endFill=0;endSize=5;jettySize=auto;orthogonalLoop=1;strokeWidth=1;fontFamily=Verdana;fontSize=12;entryX=0.5;entryY=0;entryDx=0;entryDy=0;exitX=0.373;exitY=0.99;exitDx=0;exitDy=0;exitPerimeter=0;" parent="1" source="62893188c0fa7362-22" target="nb8dSJ33XXj_A_fWaeaZ-269" edge="1">
          <mxGeometry x="0.1373" y="16" relative="1" as="geometry">
            <mxPoint as="offset" />
            <mxPoint x="-2355" y="1267" as="sourcePoint" />
            <mxPoint x="-2470" y="1577" as="targetPoint" />
          </mxGeometry>
        </mxCell>
        <mxCell id="nb8dSJ33XXj_A_fWaeaZ-271" value="Yes" style="edgeLabel;html=1;align=center;verticalAlign=middle;resizable=0;points=[];" parent="nb8dSJ33XXj_A_fWaeaZ-270" vertex="1" connectable="0">
          <mxGeometry x="0.4661" relative="1" as="geometry">
            <mxPoint x="16" y="-54" as="offset" />
          </mxGeometry>
        </mxCell>
        <mxCell id="nb8dSJ33XXj_A_fWaeaZ-269" value="Cybersecurity&lt;br&gt;Information Technology&lt;br style=&quot;border-color: var(--border-color);&quot;&gt;Computer Science&lt;br style=&quot;border-color: var(--border-color);&quot;&gt;Computer Engineering&lt;br&gt;Electrical Engineering&lt;br&gt;Software Engineering" style="whiteSpace=wrap;html=1;rounded=0;shadow=1;labelBackgroundColor=none;strokeWidth=2;fontFamily=Verdana;fontSize=12;align=center;fillColor=#d5e8d4;strokeColor=#82b366;" parent="1" vertex="1">
          <mxGeometry x="-2540" y="1550" width="120" height="110" as="geometry" />
        </mxCell>
        <mxCell id="nb8dSJ33XXj_A_fWaeaZ-272" value="Secondary Education" style="whiteSpace=wrap;html=1;rounded=0;shadow=1;labelBackgroundColor=none;strokeWidth=2;fontFamily=Verdana;fontSize=12;align=center;fillColor=#d5e8d4;strokeColor=#82b366;" parent="1" vertex="1">
          <mxGeometry x="-1310" y="1675" width="120" height="60" as="geometry" />
        </mxCell>
        <mxCell id="nb8dSJ33XXj_A_fWaeaZ-273" value="Midle Grades Education" style="whiteSpace=wrap;html=1;rounded=0;shadow=1;labelBackgroundColor=none;strokeWidth=2;fontFamily=Verdana;fontSize=12;align=center;fillColor=#d5e8d4;strokeColor=#82b366;" parent="1" vertex="1">
          <mxGeometry x="-1460" y="1675" width="120" height="60" as="geometry" />
        </mxCell>
        <mxCell id="nb8dSJ33XXj_A_fWaeaZ-274" value="Elementary Education" style="whiteSpace=wrap;html=1;rounded=0;shadow=1;labelBackgroundColor=none;strokeWidth=2;fontFamily=Verdana;fontSize=12;align=center;fillColor=#d5e8d4;strokeColor=#82b366;" parent="1" vertex="1">
          <mxGeometry x="-1600" y="1675" width="120" height="60" as="geometry" />
        </mxCell>
        <mxCell id="nb8dSJ33XXj_A_fWaeaZ-275" value="Secondary Education&lt;br&gt;Learning Design and Technology&lt;br&gt;Public Health Education" style="whiteSpace=wrap;html=1;rounded=0;shadow=1;labelBackgroundColor=none;strokeWidth=2;fontFamily=Verdana;fontSize=12;align=center;fillColor=#d5e8d4;strokeColor=#82b366;" parent="1" vertex="1">
          <mxGeometry x="-215" y="1275" width="180" height="60" as="geometry" />
        </mxCell>
        <mxCell id="nb8dSJ33XXj_A_fWaeaZ-276" value="Midle Grades Education&lt;br&gt;Learning Design and Technology" style="whiteSpace=wrap;html=1;rounded=0;shadow=1;labelBackgroundColor=none;strokeWidth=2;fontFamily=Verdana;fontSize=12;align=center;fillColor=#d5e8d4;strokeColor=#82b366;" parent="1" vertex="1">
          <mxGeometry x="-405" y="1275" width="170" height="60" as="geometry" />
        </mxCell>
        <mxCell id="nb8dSJ33XXj_A_fWaeaZ-277" value="Elementary Education&lt;br&gt;Learning Design and Technology" style="whiteSpace=wrap;html=1;rounded=0;shadow=1;labelBackgroundColor=none;strokeWidth=2;fontFamily=Verdana;fontSize=12;align=center;fillColor=#d5e8d4;strokeColor=#82b366;" parent="1" vertex="1">
          <mxGeometry x="-635" y="1275" width="200" height="60" as="geometry" />
        </mxCell>
        <mxCell id="nb8dSJ33XXj_A_fWaeaZ-278" value="Secondary Education&lt;br&gt;English Education" style="whiteSpace=wrap;html=1;rounded=0;shadow=1;labelBackgroundColor=none;strokeWidth=2;fontFamily=Verdana;fontSize=12;align=center;fillColor=#d5e8d4;strokeColor=#82b366;" parent="1" vertex="1">
          <mxGeometry x="-155" y="2030" width="120" height="60" as="geometry" />
        </mxCell>
        <mxCell id="nb8dSJ33XXj_A_fWaeaZ-279" value="Midle Grades Education&lt;br&gt;English Education" style="whiteSpace=wrap;html=1;rounded=0;shadow=1;labelBackgroundColor=none;strokeWidth=2;fontFamily=Verdana;fontSize=12;align=center;fillColor=#d5e8d4;strokeColor=#82b366;" parent="1" vertex="1">
          <mxGeometry x="-295" y="2030" width="120" height="60" as="geometry" />
        </mxCell>
        <mxCell id="nb8dSJ33XXj_A_fWaeaZ-280" value="Elementary Education&lt;br&gt;English Education" style="whiteSpace=wrap;html=1;rounded=0;shadow=1;labelBackgroundColor=none;strokeWidth=2;fontFamily=Verdana;fontSize=12;align=center;fillColor=#d5e8d4;strokeColor=#82b366;" parent="1" vertex="1">
          <mxGeometry x="-435" y="2030" width="120" height="60" as="geometry" />
        </mxCell>
        <mxCell id="nb8dSJ33XXj_A_fWaeaZ-282" value="Would you rather be wealthy or respected by your peers?&amp;nbsp;" style="whiteSpace=wrap;html=1;rounded=1;shadow=1;labelBackgroundColor=none;strokeWidth=1;fontFamily=Verdana;fontSize=12;align=center;" parent="1" vertex="1">
          <mxGeometry x="225" y="1600" width="120" height="60" as="geometry" />
        </mxCell>
        <mxCell id="nb8dSJ33XXj_A_fWaeaZ-283" value="&lt;span&gt;Organiczational and Professional Communication&lt;br&gt;Marketing&lt;br&gt;Human Services&lt;br&gt;Criminal Justice&lt;br&gt;Journalism and Emerging Media&lt;br&gt;&lt;/span&gt;" style="whiteSpace=wrap;html=1;rounded=0;shadow=1;labelBackgroundColor=none;strokeWidth=2;fontFamily=Verdana;fontSize=12;align=center;fillColor=#d5e8d4;strokeColor=#82b366;" parent="1" vertex="1">
          <mxGeometry x="395" y="1830" width="260" height="135" as="geometry" />
        </mxCell>
        <mxCell id="nb8dSJ33XXj_A_fWaeaZ-284" value="Peers" style="rounded=0;html=1;labelBackgroundColor=none;startArrow=none;startFill=0;startSize=5;endArrow=none;endFill=0;endSize=5;jettySize=auto;orthogonalLoop=1;strokeWidth=1;fontFamily=Verdana;fontSize=12;entryX=0.5;entryY=0;entryDx=0;entryDy=0;exitX=0.635;exitY=1.005;exitDx=0;exitDy=0;exitPerimeter=0;" parent="1" source="nb8dSJ33XXj_A_fWaeaZ-282" target="nb8dSJ33XXj_A_fWaeaZ-283" edge="1">
          <mxGeometry x="0.1373" y="16" relative="1" as="geometry">
            <mxPoint as="offset" />
            <mxPoint x="305" y="1690" as="sourcePoint" />
            <mxPoint x="363" y="1830" as="targetPoint" />
          </mxGeometry>
        </mxCell>
        <mxCell id="nb8dSJ33XXj_A_fWaeaZ-285" value="Money" style="rounded=0;html=1;labelBackgroundColor=none;startArrow=none;startFill=0;startSize=5;endArrow=none;endFill=0;endSize=5;jettySize=auto;orthogonalLoop=1;strokeWidth=1;fontFamily=Verdana;fontSize=12;exitX=0.5;exitY=1;exitDx=0;exitDy=0;entryX=0.5;entryY=0;entryDx=0;entryDy=0;" parent="1" source="nb8dSJ33XXj_A_fWaeaZ-282" target="nb8dSJ33XXj_A_fWaeaZ-286" edge="1">
          <mxGeometry x="0.1373" y="16" relative="1" as="geometry">
            <mxPoint as="offset" />
            <mxPoint x="205" y="1760" as="sourcePoint" />
            <mxPoint x="315" y="1850" as="targetPoint" />
          </mxGeometry>
        </mxCell>
        <mxCell id="nb8dSJ33XXj_A_fWaeaZ-286" value="&lt;span&gt;Entrepreneurship&lt;br&gt;Management&lt;br&gt;Marketing&lt;br&gt;Professional Sales&lt;br&gt;&lt;br&gt;&lt;br&gt;&lt;/span&gt;" style="whiteSpace=wrap;html=1;rounded=0;shadow=1;labelBackgroundColor=none;strokeWidth=2;fontFamily=Verdana;fontSize=12;align=center;fillColor=#d5e8d4;strokeColor=#82b366;" parent="1" vertex="1">
          <mxGeometry x="205" y="1890" width="120" height="90" as="geometry" />
        </mxCell>
        <mxCell id="nb8dSJ33XXj_A_fWaeaZ-288" value="&lt;span&gt;Would you rather be wealthy or respected by your peers?&amp;nbsp;&lt;/span&gt;" style="whiteSpace=wrap;html=1;rounded=1;shadow=1;labelBackgroundColor=none;strokeWidth=1;fontFamily=Verdana;fontSize=12;align=center;" parent="1" vertex="1">
          <mxGeometry x="1010" y="1320" width="120" height="60" as="geometry" />
        </mxCell>
        <mxCell id="nb8dSJ33XXj_A_fWaeaZ-289" value="Peers" style="rounded=0;html=1;labelBackgroundColor=none;startArrow=none;startFill=0;startSize=5;endArrow=none;endFill=0;endSize=5;jettySize=auto;orthogonalLoop=1;strokeWidth=1;fontFamily=Verdana;fontSize=12;entryX=0.5;entryY=0;entryDx=0;entryDy=0;exitX=0.5;exitY=1;exitDx=0;exitDy=0;" parent="1" source="nb8dSJ33XXj_A_fWaeaZ-288" target="nb8dSJ33XXj_A_fWaeaZ-297" edge="1">
          <mxGeometry x="0.1373" y="16" relative="1" as="geometry">
            <mxPoint as="offset" />
            <mxPoint x="1045" y="1505" as="sourcePoint" />
            <mxPoint x="1015" y="3184.999999999999" as="targetPoint" />
          </mxGeometry>
        </mxCell>
        <mxCell id="nb8dSJ33XXj_A_fWaeaZ-290" value="Money" style="rounded=0;html=1;labelBackgroundColor=none;startArrow=none;startFill=0;startSize=5;endArrow=none;endFill=0;endSize=5;jettySize=auto;orthogonalLoop=1;strokeWidth=1;fontFamily=Verdana;fontSize=12;exitX=0.385;exitY=1.04;exitDx=0;exitDy=0;entryX=0.5;entryY=0;entryDx=0;entryDy=0;exitPerimeter=0;" parent="1" source="nb8dSJ33XXj_A_fWaeaZ-288" target="nb8dSJ33XXj_A_fWaeaZ-291" edge="1">
          <mxGeometry x="0.1373" y="16" relative="1" as="geometry">
            <mxPoint as="offset" />
            <mxPoint x="1015" y="1525" as="sourcePoint" />
            <mxPoint x="995" y="1755" as="targetPoint" />
          </mxGeometry>
        </mxCell>
        <mxCell id="nb8dSJ33XXj_A_fWaeaZ-291" value="&lt;span&gt;Marketing&lt;br&gt;Psychology&lt;br&gt;&lt;br&gt;&lt;/span&gt;" style="whiteSpace=wrap;html=1;rounded=0;shadow=1;labelBackgroundColor=none;strokeWidth=2;fontFamily=Verdana;fontSize=12;align=center;fillColor=#d5e8d4;strokeColor=#82b366;" parent="1" vertex="1">
          <mxGeometry x="850" y="1660" width="120" height="60" as="geometry" />
        </mxCell>
        <mxCell id="nb8dSJ33XXj_A_fWaeaZ-292" value="English&lt;br&gt;English Education" style="whiteSpace=wrap;html=1;rounded=0;shadow=1;labelBackgroundColor=none;strokeWidth=2;fontFamily=Verdana;fontSize=12;align=center;fillColor=#d5e8d4;strokeColor=#82b366;" parent="1" vertex="1">
          <mxGeometry x="820" y="1490" width="120" height="60" as="geometry" />
        </mxCell>
        <mxCell id="nb8dSJ33XXj_A_fWaeaZ-293" value="Secondary Education&lt;br&gt;English Education" style="whiteSpace=wrap;html=1;rounded=0;shadow=1;labelBackgroundColor=none;strokeWidth=2;fontFamily=Verdana;fontSize=12;align=center;fillColor=#d5e8d4;strokeColor=#82b366;" parent="1" vertex="1">
          <mxGeometry x="670" y="1490" width="120" height="60" as="geometry" />
        </mxCell>
        <mxCell id="nb8dSJ33XXj_A_fWaeaZ-294" value="Midle Grades Education&lt;br&gt;English Education" style="whiteSpace=wrap;html=1;rounded=0;shadow=1;labelBackgroundColor=none;strokeWidth=2;fontFamily=Verdana;fontSize=12;align=center;fillColor=#d5e8d4;strokeColor=#82b366;" parent="1" vertex="1">
          <mxGeometry x="530" y="1490" width="120" height="60" as="geometry" />
        </mxCell>
        <mxCell id="nb8dSJ33XXj_A_fWaeaZ-295" value="Elementary Education&lt;br&gt;English Education" style="whiteSpace=wrap;html=1;rounded=0;shadow=1;labelBackgroundColor=none;strokeWidth=2;fontFamily=Verdana;fontSize=12;align=center;fillColor=#d5e8d4;strokeColor=#82b366;" parent="1" vertex="1">
          <mxGeometry x="390" y="1490" width="120" height="60" as="geometry" />
        </mxCell>
        <mxCell id="nb8dSJ33XXj_A_fWaeaZ-297" value="Would you like to explore cultures or people in general?" style="whiteSpace=wrap;html=1;rounded=1;shadow=1;labelBackgroundColor=none;strokeWidth=1;fontFamily=Verdana;fontSize=12;align=center;" parent="1" vertex="1">
          <mxGeometry x="1050" y="1580" width="120" height="60" as="geometry" />
        </mxCell>
        <mxCell id="nb8dSJ33XXj_A_fWaeaZ-298" value="&lt;span&gt;Psychology&lt;br&gt;Sociology&lt;br&gt;Exercise Science&lt;br&gt;Health and Physical Activities Leadership&lt;br&gt;&lt;/span&gt;" style="whiteSpace=wrap;html=1;rounded=0;shadow=1;labelBackgroundColor=none;strokeWidth=2;fontFamily=Verdana;fontSize=12;align=center;fillColor=#d5e8d4;strokeColor=#82b366;" parent="1" vertex="1">
          <mxGeometry x="910" y="1750" width="220" height="60" as="geometry" />
        </mxCell>
        <mxCell id="nb8dSJ33XXj_A_fWaeaZ-299" value="People in general" style="rounded=0;html=1;labelBackgroundColor=none;startArrow=none;startFill=0;startSize=5;endArrow=none;endFill=0;endSize=5;jettySize=auto;orthogonalLoop=1;strokeWidth=1;fontFamily=Verdana;fontSize=12;exitX=0.25;exitY=1;exitDx=0;exitDy=0;entryX=0.5;entryY=0;entryDx=0;entryDy=0;" parent="1" source="nb8dSJ33XXj_A_fWaeaZ-297" target="nb8dSJ33XXj_A_fWaeaZ-298" edge="1">
          <mxGeometry x="0.1373" y="16" relative="1" as="geometry">
            <mxPoint as="offset" />
            <mxPoint x="1186" y="710" as="sourcePoint" />
            <mxPoint x="1020" y="2068" as="targetPoint" />
          </mxGeometry>
        </mxCell>
        <mxCell id="nb8dSJ33XXj_A_fWaeaZ-300" value="Cultures" style="rounded=0;html=1;labelBackgroundColor=none;startArrow=none;startFill=0;startSize=5;endArrow=none;endFill=0;endSize=5;jettySize=auto;orthogonalLoop=1;strokeWidth=1;fontFamily=Verdana;fontSize=12;exitX=0.5;exitY=1;exitDx=0;exitDy=0;entryX=0.5;entryY=0;entryDx=0;entryDy=0;" parent="1" source="nb8dSJ33XXj_A_fWaeaZ-297" target="nb8dSJ33XXj_A_fWaeaZ-302" edge="1">
          <mxGeometry x="0.1373" y="16" relative="1" as="geometry">
            <mxPoint as="offset" />
            <mxPoint x="1260" y="1690" as="sourcePoint" />
            <mxPoint x="1240" y="2150" as="targetPoint" />
          </mxGeometry>
        </mxCell>
        <mxCell id="nb8dSJ33XXj_A_fWaeaZ-302" value="&lt;span&gt;Asian Studies&lt;br&gt;Black Studies&lt;br&gt;Modern Language and Culture&lt;br&gt;&lt;/span&gt;" style="whiteSpace=wrap;html=1;rounded=0;shadow=1;labelBackgroundColor=none;strokeWidth=2;fontFamily=Verdana;fontSize=12;align=center;fillColor=#d5e8d4;strokeColor=#82b366;" parent="1" vertex="1">
          <mxGeometry x="1140" y="1860" width="220" height="60" as="geometry" />
        </mxCell>
        <mxCell id="nb8dSJ33XXj_A_fWaeaZ-303" value="History&lt;br&gt;History Education" style="whiteSpace=wrap;html=1;rounded=0;shadow=1;labelBackgroundColor=none;strokeWidth=2;fontFamily=Verdana;fontSize=12;align=center;fillColor=#d5e8d4;strokeColor=#82b366;" parent="1" vertex="1">
          <mxGeometry x="1660" y="1295" width="120" height="60" as="geometry" />
        </mxCell>
        <mxCell id="nb8dSJ33XXj_A_fWaeaZ-304" value="Secondary Education&lt;br&gt;History Education" style="whiteSpace=wrap;html=1;rounded=0;shadow=1;labelBackgroundColor=none;strokeWidth=2;fontFamily=Verdana;fontSize=12;align=center;fillColor=#d5e8d4;strokeColor=#82b366;" parent="1" vertex="1">
          <mxGeometry x="1520" y="1295" width="120" height="60" as="geometry" />
        </mxCell>
        <mxCell id="nb8dSJ33XXj_A_fWaeaZ-305" value="Midle Grades Education&lt;br&gt;History Education" style="whiteSpace=wrap;html=1;rounded=0;shadow=1;labelBackgroundColor=none;strokeWidth=2;fontFamily=Verdana;fontSize=12;align=center;fillColor=#d5e8d4;strokeColor=#82b366;" parent="1" vertex="1">
          <mxGeometry x="1380" y="1295" width="120" height="60" as="geometry" />
        </mxCell>
        <mxCell id="nb8dSJ33XXj_A_fWaeaZ-306" value="Elementary Education&lt;br&gt;History Education" style="whiteSpace=wrap;html=1;rounded=0;shadow=1;labelBackgroundColor=none;strokeWidth=2;fontFamily=Verdana;fontSize=12;align=center;fillColor=#d5e8d4;strokeColor=#82b366;" parent="1" vertex="1">
          <mxGeometry x="1240" y="1295" width="120" height="60" as="geometry" />
        </mxCell>
        <mxCell id="nb8dSJ33XXj_A_fWaeaZ-311" value="&lt;span&gt;Human Services&lt;br&gt;Theatre and Performance Studies&lt;br&gt;&lt;/span&gt;" style="whiteSpace=wrap;html=1;rounded=0;shadow=1;labelBackgroundColor=none;strokeWidth=2;fontFamily=Verdana;fontSize=12;align=center;fillColor=#d5e8d4;strokeColor=#82b366;" parent="1" vertex="1">
          <mxGeometry x="2145" y="1260" width="170" height="60" as="geometry" />
        </mxCell>
        <mxCell id="nb8dSJ33XXj_A_fWaeaZ-313" value="History&lt;br&gt;Geography&lt;br&gt;History Education" style="whiteSpace=wrap;html=1;rounded=0;shadow=1;labelBackgroundColor=none;strokeWidth=2;fontFamily=Verdana;fontSize=12;align=center;fillColor=#d5e8d4;strokeColor=#82b366;" parent="1" vertex="1">
          <mxGeometry x="2250" y="1445" width="120" height="60" as="geometry" />
        </mxCell>
        <mxCell id="nb8dSJ33XXj_A_fWaeaZ-314" value="Secondary Education&lt;br&gt;History Education" style="whiteSpace=wrap;html=1;rounded=0;shadow=1;labelBackgroundColor=none;strokeWidth=2;fontFamily=Verdana;fontSize=12;align=center;fillColor=#d5e8d4;strokeColor=#82b366;" parent="1" vertex="1">
          <mxGeometry x="2110" y="1445" width="120" height="60" as="geometry" />
        </mxCell>
        <mxCell id="nb8dSJ33XXj_A_fWaeaZ-315" value="Midle Grades Education&lt;br&gt;History Education" style="whiteSpace=wrap;html=1;rounded=0;shadow=1;labelBackgroundColor=none;strokeWidth=2;fontFamily=Verdana;fontSize=12;align=center;fillColor=#d5e8d4;strokeColor=#82b366;" parent="1" vertex="1">
          <mxGeometry x="1970" y="1445" width="120" height="60" as="geometry" />
        </mxCell>
        <mxCell id="nb8dSJ33XXj_A_fWaeaZ-316" value="Elementary Education&lt;br&gt;History Education" style="whiteSpace=wrap;html=1;rounded=0;shadow=1;labelBackgroundColor=none;strokeWidth=2;fontFamily=Verdana;fontSize=12;align=center;fillColor=#d5e8d4;strokeColor=#82b366;" parent="1" vertex="1">
          <mxGeometry x="1830" y="1445" width="120" height="60" as="geometry" />
        </mxCell>
        <mxCell id="nb8dSJ33XXj_A_fWaeaZ-317" value="Secondary Education&lt;br&gt;Music Education" style="whiteSpace=wrap;html=1;rounded=0;shadow=1;labelBackgroundColor=none;strokeWidth=2;fontFamily=Verdana;fontSize=12;align=center;fillColor=#d5e8d4;strokeColor=#82b366;" parent="1" vertex="1">
          <mxGeometry x="3490" y="1160" width="120" height="60" as="geometry" />
        </mxCell>
        <mxCell id="nb8dSJ33XXj_A_fWaeaZ-318" value="Middle Grades Education&lt;br&gt;Music Education" style="whiteSpace=wrap;html=1;rounded=0;shadow=1;labelBackgroundColor=none;strokeWidth=2;fontFamily=Verdana;fontSize=12;align=center;fillColor=#d5e8d4;strokeColor=#82b366;" parent="1" vertex="1">
          <mxGeometry x="3350" y="1160" width="130" height="60" as="geometry" />
        </mxCell>
        <mxCell id="nb8dSJ33XXj_A_fWaeaZ-319" value="Elementary Education&lt;br&gt;Music Education" style="whiteSpace=wrap;html=1;rounded=0;shadow=1;labelBackgroundColor=none;strokeWidth=2;fontFamily=Verdana;fontSize=12;align=center;fillColor=#d5e8d4;strokeColor=#82b366;" parent="1" vertex="1">
          <mxGeometry x="3210" y="1160" width="120" height="60" as="geometry" />
        </mxCell>
        <mxCell id="nb8dSJ33XXj_A_fWaeaZ-320" value="Art&lt;br&gt;Music&lt;br&gt;Music Education" style="whiteSpace=wrap;html=1;rounded=0;shadow=1;labelBackgroundColor=none;strokeWidth=2;fontFamily=Verdana;fontSize=12;align=center;fillColor=#d5e8d4;strokeColor=#82b366;" parent="1" vertex="1">
          <mxGeometry x="3630" y="1160" width="120" height="60" as="geometry" />
        </mxCell>
      </root>
    </mxGraphModel>
  </diagram>
</mxfile>
